<mxfile host="65bd71144e">
    <diagram id="HNvlSPPAvNH71BLPQctR" name="Page-1">
        <mxGraphModel dx="1745" dy="636" grid="1" gridSize="10" guides="1" tooltips="1" connect="1" arrows="1" fold="1" page="1" pageScale="1" pageWidth="850" pageHeight="1100" math="0" shadow="0">
            <root>
                <mxCell id="0"/>
                <mxCell id="1" parent="0"/>
                <mxCell id="536" value="" style="rounded=1;whiteSpace=wrap;html=1;fillColor=#f5f5f5;fontColor=#333333;strokeColor=#666666;arcSize=5;" vertex="1" parent="1">
                    <mxGeometry x="910" y="1200" width="725" height="680" as="geometry"/>
                </mxCell>
                <mxCell id="528" style="edgeStyle=none;html=1;exitX=0;exitY=0;exitDx=0;exitDy=0;entryX=0;entryY=0;entryDx=0;entryDy=0;dashed=1;" edge="1" parent="1" source="478" target="527">
                    <mxGeometry relative="1" as="geometry"/>
                </mxCell>
                <mxCell id="529" style="edgeStyle=none;html=1;exitX=1;exitY=0;exitDx=0;exitDy=0;entryX=1;entryY=0;entryDx=0;entryDy=0;dashed=1;" edge="1" parent="1" source="478" target="527">
                    <mxGeometry relative="1" as="geometry"/>
                </mxCell>
                <mxCell id="527" value="" style="rounded=1;whiteSpace=wrap;html=1;arcSize=0;dashed=1;" vertex="1" parent="1">
                    <mxGeometry x="1205" y="1240" width="240" height="220" as="geometry"/>
                </mxCell>
                <mxCell id="476" value="" style="rounded=1;whiteSpace=wrap;html=1;fillColor=#f5f5f5;fontColor=#333333;strokeColor=#666666;arcSize=5;" parent="1" vertex="1">
                    <mxGeometry x="850" y="40" width="850" height="980" as="geometry"/>
                </mxCell>
                <mxCell id="336" value="" style="rounded=1;whiteSpace=wrap;html=1;fillColor=#f5f5f5;fontColor=#333333;strokeColor=#666666;arcSize=5;" parent="1" vertex="1">
                    <mxGeometry y="40" width="840" height="980" as="geometry"/>
                </mxCell>
                <mxCell id="331" style="edgeStyle=none;html=1;exitX=1;exitY=0;exitDx=0;exitDy=0;entryX=1;entryY=0;entryDx=0;entryDy=0;jumpStyle=none;dashed=1;" parent="1" source="37" target="30" edge="1">
                    <mxGeometry relative="1" as="geometry"/>
                </mxCell>
                <mxCell id="332" style="edgeStyle=none;html=1;exitX=0;exitY=0;exitDx=0;exitDy=0;entryX=0;entryY=0;entryDx=0;entryDy=0;jumpStyle=none;dashed=1;" parent="1" source="37" target="30" edge="1">
                    <mxGeometry relative="1" as="geometry"/>
                </mxCell>
                <mxCell id="320" value="" style="rounded=1;whiteSpace=wrap;html=1;fillColor=#f5f5f5;fontColor=#333333;strokeColor=#666666;arcSize=4;" parent="1" vertex="1">
                    <mxGeometry x="-640" y="1240" width="360" height="600" as="geometry"/>
                </mxCell>
                <mxCell id="299" value="" style="rounded=1;whiteSpace=wrap;html=1;fillColor=#f5f5f5;fontColor=#333333;strokeColor=#666666;arcSize=10;" parent="1" vertex="1">
                    <mxGeometry x="119" y="1375" width="650" height="370" as="geometry"/>
                </mxCell>
                <mxCell id="52" value="" style="rounded=1;whiteSpace=wrap;html=1;fillColor=#f5f5f5;fontColor=#333333;strokeColor=#666666;" parent="1" vertex="1">
                    <mxGeometry x="-690" y="80" width="400" height="410" as="geometry"/>
                </mxCell>
                <mxCell id="30" value="" style="rounded=1;whiteSpace=wrap;html=1;arcSize=0;dashed=1;" parent="1" vertex="1">
                    <mxGeometry x="190" y="130" width="480" height="440" as="geometry"/>
                </mxCell>
                <mxCell id="21" style="edgeStyle=none;html=1;exitX=0;exitY=0;exitDx=80;exitDy=40;exitPerimeter=0;entryX=0;entryY=0.25;entryDx=0;entryDy=0;" parent="1" source="2" target="16" edge="1">
                    <mxGeometry relative="1" as="geometry">
                        <Array as="points">
                            <mxPoint x="374" y="240"/>
                            <mxPoint x="374" y="340"/>
                        </Array>
                    </mxGeometry>
                </mxCell>
                <mxCell id="2" value="+" style="externalPins=0;recursiveResize=0;shadow=0;dashed=0;align=center;strokeWidth=1;shape=mxgraph.rtl.abstract.entity;container=0;collapsible=0;kind=combinational;drawPins=1;left=+:i;right=:o;bottom=+:i;top=+:i;bottomAnchor=middle;topRot=270;topAnchor=middle;bottomRot=90;leftAnchor=left;leftRot=0;rightAnchor=right;rightRot=180;fontSize=40;spacingTop=-10;spacingLeft=2;editable=1;resizable=1;movable=1;rotatable=1;deletable=1;locked=0;connectable=1;fillColor=#f8cecc;strokeColor=#b85450;" parent="1" vertex="1">
                    <mxGeometry x="214" y="200" width="80" height="80" as="geometry"/>
                </mxCell>
                <mxCell id="22" style="edgeStyle=none;html=1;exitX=0;exitY=0;exitDx=80;exitDy=40;exitPerimeter=0;entryX=0;entryY=0.75;entryDx=0;entryDy=0;" parent="1" source="3" target="16" edge="1">
                    <mxGeometry relative="1" as="geometry">
                        <Array as="points">
                            <mxPoint x="374" y="470"/>
                            <mxPoint x="374" y="380"/>
                        </Array>
                    </mxGeometry>
                </mxCell>
                <mxCell id="3" value="+" style="externalPins=0;recursiveResize=0;shadow=0;dashed=0;align=center;strokeWidth=1;shape=mxgraph.rtl.abstract.entity;container=0;collapsible=0;kind=combinational;drawPins=1;left=+:i;right=:o;bottom=+:i;top=+:i;bottomAnchor=middle;topRot=270;topAnchor=middle;bottomRot=90;leftAnchor=left;leftRot=0;rightAnchor=right;rightRot=180;fontSize=40;spacingTop=-10;spacingLeft=2;editable=1;resizable=1;movable=1;rotatable=1;deletable=1;locked=0;connectable=1;fillColor=#f8cecc;strokeColor=#b85450;" parent="1" vertex="1">
                    <mxGeometry x="214" y="430" width="80" height="80" as="geometry"/>
                </mxCell>
                <mxCell id="5" value="i_PM_" style="externalPins=0;recursiveResize=0;shadow=0;dashed=0;align=center;html=1;strokeWidth=1;shape=mxgraph.rtl.abstract.entity;container=1;collapsible=0;kind=input;drawPins=0;left=0;right=1;bottom=0;top=0;fillColor=#d5e8d4;strokeColor=#82b366;" parent="1" vertex="1">
                    <mxGeometry x="34" y="450" width="120" height="40" as="geometry"/>
                </mxCell>
                <mxCell id="6" value="i_PM_" style="externalPins=0;recursiveResize=0;shadow=0;dashed=0;align=center;html=1;strokeWidth=1;shape=mxgraph.rtl.abstract.entity;container=1;collapsible=0;kind=input;drawPins=0;left=0;right=1;bottom=0;top=0;fillColor=#d5e8d4;strokeColor=#82b366;" parent="1" vertex="1">
                    <mxGeometry x="34" y="220" width="120" height="40" as="geometry"/>
                </mxCell>
                <mxCell id="9" value="" style="endArrow=none;html=1;exitX=0;exitY=0;exitDx=120;exitDy=20;exitPerimeter=0;entryX=0;entryY=0;entryDx=0;entryDy=40;entryPerimeter=0;" parent="1" source="6" target="2" edge="1">
                    <mxGeometry width="50" height="50" relative="1" as="geometry">
                        <mxPoint x="174" y="370" as="sourcePoint"/>
                        <mxPoint x="224" y="320" as="targetPoint"/>
                    </mxGeometry>
                </mxCell>
                <mxCell id="10" value="" style="endArrow=none;html=1;exitX=0;exitY=0;exitDx=120;exitDy=20;exitPerimeter=0;entryX=0;entryY=0;entryDx=0;entryDy=40;entryPerimeter=0;" parent="1" source="5" target="3" edge="1">
                    <mxGeometry width="50" height="50" relative="1" as="geometry">
                        <mxPoint x="164" y="440" as="sourcePoint"/>
                        <mxPoint x="224" y="440" as="targetPoint"/>
                    </mxGeometry>
                </mxCell>
                <mxCell id="11" value="i_BM_" style="externalPins=0;recursiveResize=0;shadow=0;dashed=0;align=center;html=1;strokeWidth=1;shape=mxgraph.rtl.abstract.entity;container=1;collapsible=0;kind=input;drawPins=0;left=0;right=1;bottom=0;top=0;fillColor=#d5e8d4;strokeColor=#82b366;" parent="1" vertex="1">
                    <mxGeometry x="34" y="360" width="120" height="40" as="geometry"/>
                </mxCell>
                <mxCell id="12" value="i_BM_" style="externalPins=0;recursiveResize=0;shadow=0;dashed=0;align=center;html=1;strokeWidth=1;shape=mxgraph.rtl.abstract.entity;container=1;collapsible=0;kind=input;drawPins=0;left=0;right=1;bottom=0;top=0;fillColor=#d5e8d4;strokeColor=#82b366;" parent="1" vertex="1">
                    <mxGeometry x="34" y="120" width="120" height="40" as="geometry"/>
                </mxCell>
                <mxCell id="13" value="" style="endArrow=none;html=1;exitX=0;exitY=0;exitDx=120;exitDy=20;exitPerimeter=0;entryX=0;entryY=0;entryDx=40;entryDy=0;entryPerimeter=0;" parent="1" source="12" target="2" edge="1">
                    <mxGeometry width="50" height="50" relative="1" as="geometry">
                        <mxPoint x="184" y="150" as="sourcePoint"/>
                        <mxPoint x="244" y="150" as="targetPoint"/>
                        <Array as="points">
                            <mxPoint x="254" y="140"/>
                        </Array>
                    </mxGeometry>
                </mxCell>
                <mxCell id="14" value="" style="endArrow=none;html=1;exitX=0;exitY=0;exitDx=120;exitDy=20;exitPerimeter=0;entryX=0;entryY=0;entryDx=40;entryDy=0;entryPerimeter=0;" parent="1" source="11" target="3" edge="1">
                    <mxGeometry width="50" height="50" relative="1" as="geometry">
                        <mxPoint x="164" y="480" as="sourcePoint"/>
                        <mxPoint x="224" y="480" as="targetPoint"/>
                        <Array as="points">
                            <mxPoint x="254" y="380"/>
                        </Array>
                    </mxGeometry>
                </mxCell>
                <mxCell id="19" value="" style="group;fillColor=#fff2cc;strokeColor=#d6b656;" parent="1" vertex="1" connectable="0">
                    <mxGeometry x="429" y="320" width="80" height="80" as="geometry"/>
                </mxCell>
                <mxCell id="538" value="" style="group" vertex="1" connectable="0" parent="19">
                    <mxGeometry width="80" height="80" as="geometry"/>
                </mxCell>
                <mxCell id="16" value="" style="rounded=0;whiteSpace=wrap;html=1;fillColor=#ffe6cc;strokeColor=#d79b00;" parent="538" vertex="1">
                    <mxGeometry width="80" height="80" as="geometry"/>
                </mxCell>
                <mxCell id="17" value="" style="endArrow=none;html=1;strokeWidth=4;" parent="538" edge="1">
                    <mxGeometry width="50" height="50" relative="1" as="geometry">
                        <mxPoint x="60" y="16" as="sourcePoint"/>
                        <mxPoint x="20" y="36" as="targetPoint"/>
                    </mxGeometry>
                </mxCell>
                <mxCell id="18" value="" style="endArrow=none;html=1;strokeWidth=4;" parent="538" edge="1">
                    <mxGeometry width="50" height="50" relative="1" as="geometry">
                        <mxPoint x="20" y="36" as="sourcePoint"/>
                        <mxPoint x="60" y="56" as="targetPoint"/>
                    </mxGeometry>
                </mxCell>
                <mxCell id="534" value="" style="endArrow=none;html=1;strokeWidth=4;" edge="1" parent="538">
                    <mxGeometry width="50" height="50" relative="1" as="geometry">
                        <mxPoint x="20" y="46" as="sourcePoint"/>
                        <mxPoint x="60" y="66" as="targetPoint"/>
                    </mxGeometry>
                </mxCell>
                <mxCell id="28" style="edgeStyle=none;html=1;exitX=0;exitY=0;exitDx=30;exitDy=70;exitPerimeter=0;" parent="1" source="24" target="29" edge="1">
                    <mxGeometry relative="1" as="geometry">
                        <mxPoint x="734" y="360.2758620689656" as="targetPoint"/>
                    </mxGeometry>
                </mxCell>
                <mxCell id="24" value="" style="externalPins=0;recursiveResize=0;shadow=0;dashed=0;align=center;html=1;strokeWidth=1;shape=mxgraph.rtl.abstract.entity;container=1;collapsible=0;kind=mux;drawPins=0;left=4;right=1;bottom=0;top=0;fillColor=#fff2cc;strokeColor=#d6b656;" parent="1" vertex="1">
                    <mxGeometry x="614" y="290" width="30" height="140" as="geometry"/>
                </mxCell>
                <mxCell id="63" value="1" style="text;html=1;align=center;verticalAlign=middle;resizable=0;points=[];autosize=1;strokeColor=none;fillColor=none;" parent="24" vertex="1">
                    <mxGeometry y="15" width="30" height="30" as="geometry"/>
                </mxCell>
                <mxCell id="62" value="0" style="text;html=1;align=center;verticalAlign=middle;resizable=0;points=[];autosize=1;strokeColor=none;fillColor=none;" parent="24" vertex="1">
                    <mxGeometry y="95" width="30" height="30" as="geometry"/>
                </mxCell>
                <mxCell id="25" style="edgeStyle=none;html=1;exitX=0;exitY=0;exitDx=120.00000000000001;exitDy=20;exitPerimeter=0;entryX=0;entryY=0;entryDx=0;entryDy=30;entryPerimeter=0;" parent="1" source="57" target="24" edge="1">
                    <mxGeometry relative="1" as="geometry">
                        <Array as="points">
                            <mxPoint x="574" y="240"/>
                            <mxPoint x="574" y="320"/>
                        </Array>
                    </mxGeometry>
                </mxCell>
                <mxCell id="26" style="edgeStyle=none;html=1;exitX=0;exitY=0;exitDx=120.00000000000001;exitDy=20;exitPerimeter=0;" parent="1" source="59" edge="1">
                    <mxGeometry relative="1" as="geometry">
                        <mxPoint x="614" y="400" as="targetPoint"/>
                        <Array as="points">
                            <mxPoint x="574" y="470"/>
                            <mxPoint x="574" y="400"/>
                        </Array>
                    </mxGeometry>
                </mxCell>
                <mxCell id="27" style="edgeStyle=none;html=1;exitX=0.5;exitY=1;exitDx=0;exitDy=0;entryX=0.566;entryY=0.935;entryDx=0;entryDy=0;entryPerimeter=0;" parent="1" source="16" target="24" edge="1">
                    <mxGeometry relative="1" as="geometry">
                        <mxPoint x="494" y="500" as="targetPoint"/>
                        <Array as="points">
                            <mxPoint x="469" y="520"/>
                            <mxPoint x="631" y="520"/>
                        </Array>
                    </mxGeometry>
                </mxCell>
                <mxCell id="29" value="o_PM_" style="externalPins=0;recursiveResize=0;shadow=0;dashed=0;align=center;html=1;strokeWidth=1;shape=mxgraph.rtl.abstract.entity;container=1;collapsible=0;kind=output;drawPins=0;left=1;right=0;bottom=0;top=0;fillColor=#dae8fc;strokeColor=#6c8ebf;" parent="1" vertex="1">
                    <mxGeometry x="684" y="339.9958620689656" width="120" height="40" as="geometry"/>
                </mxCell>
                <mxCell id="31" value="" style="endArrow=none;dashed=1;html=1;dashPattern=1 3;strokeWidth=3;" parent="1" edge="1">
                    <mxGeometry width="50" height="50" relative="1" as="geometry">
                        <mxPoint x="324" y="120" as="sourcePoint"/>
                        <mxPoint x="324" y="560" as="targetPoint"/>
                    </mxGeometry>
                </mxCell>
                <mxCell id="32" value="" style="endArrow=none;dashed=1;html=1;dashPattern=1 3;strokeWidth=3;" parent="1" edge="1">
                    <mxGeometry width="50" height="50" relative="1" as="geometry">
                        <mxPoint x="564" y="120" as="sourcePoint"/>
                        <mxPoint x="564" y="560" as="targetPoint"/>
                    </mxGeometry>
                </mxCell>
                <mxCell id="33" value="Add_Unit" style="rounded=0;whiteSpace=wrap;html=1;fillColor=#e1d5e7;strokeColor=#9673a6;" parent="1" vertex="1">
                    <mxGeometry x="204" y="80" width="80" height="40" as="geometry"/>
                </mxCell>
                <mxCell id="34" value="Compare_Unit" style="rounded=0;whiteSpace=wrap;html=1;fillColor=#e1d5e7;strokeColor=#9673a6;" parent="1" vertex="1">
                    <mxGeometry x="404" y="80" width="80" height="40" as="geometry"/>
                </mxCell>
                <mxCell id="35" value="Select_Unit" style="rounded=0;whiteSpace=wrap;html=1;fillColor=#e1d5e7;strokeColor=#9673a6;" parent="1" vertex="1">
                    <mxGeometry x="624" y="80" width="80" height="40" as="geometry"/>
                </mxCell>
                <mxCell id="37" value="&lt;font style=&quot;font-size: 20px;&quot;&gt;ACSU&lt;/font&gt;" style="rounded=1;whiteSpace=wrap;html=1;fillColor=#ffe6cc;strokeColor=#d79b00;arcSize=0;" parent="1" vertex="1">
                    <mxGeometry x="286" y="720" width="235" height="200" as="geometry"/>
                </mxCell>
                <mxCell id="44" style="edgeStyle=none;html=1;exitX=1;exitY=0.5;exitDx=0;exitDy=0;entryX=0;entryY=0.5;entryDx=0;entryDy=0;strokeWidth=3;fillColor=#f8cecc;strokeColor=#b85450;dashed=1;" parent="1" source="38" target="42" edge="1">
                    <mxGeometry relative="1" as="geometry"/>
                </mxCell>
                <mxCell id="48" value="&lt;font style=&quot;font-size: 24px;&quot;&gt;0&lt;/font&gt;" style="edgeLabel;html=1;align=center;verticalAlign=middle;resizable=0;points=[];fontColor=default;labelBackgroundColor=none;" parent="44" vertex="1" connectable="0">
                    <mxGeometry x="-0.1132" relative="1" as="geometry">
                        <mxPoint y="-10" as="offset"/>
                    </mxGeometry>
                </mxCell>
                <mxCell id="38" value="&lt;font style=&quot;font-size: 24px;&quot;&gt;2j&lt;/font&gt;" style="ellipse;whiteSpace=wrap;html=1;aspect=fixed;fillColor=#fff2cc;strokeColor=#d6b656;" parent="1" vertex="1">
                    <mxGeometry x="-650" y="120" width="80" height="80" as="geometry"/>
                </mxCell>
                <mxCell id="46" style="edgeStyle=none;html=1;exitX=1;exitY=0.5;exitDx=0;exitDy=0;entryX=0;entryY=0.5;entryDx=0;entryDy=0;strokeWidth=3;fillColor=#e1d5e7;strokeColor=#9673a6;" parent="1" source="39" target="43" edge="1">
                    <mxGeometry relative="1" as="geometry"/>
                </mxCell>
                <mxCell id="51" value="&lt;span&gt;&lt;font style=&quot;font-size: 24px;&quot;&gt;1&lt;/font&gt;&lt;/span&gt;" style="edgeLabel;html=1;align=center;verticalAlign=middle;resizable=0;points=[];labelBackgroundColor=none;" parent="46" vertex="1" connectable="0">
                    <mxGeometry x="-0.1013" y="3" relative="1" as="geometry">
                        <mxPoint y="-9" as="offset"/>
                    </mxGeometry>
                </mxCell>
                <mxCell id="39" value="&lt;font style=&quot;font-size: 24px;&quot;&gt;2j + 1&lt;/font&gt;" style="ellipse;whiteSpace=wrap;html=1;aspect=fixed;fillColor=#fff2cc;strokeColor=#d6b656;" parent="1" vertex="1">
                    <mxGeometry x="-650" y="320" width="80" height="80" as="geometry"/>
                </mxCell>
                <mxCell id="42" value="&lt;font style=&quot;font-size: 24px;&quot;&gt;j&lt;/font&gt;" style="ellipse;whiteSpace=wrap;html=1;aspect=fixed;fillColor=#ffe6cc;strokeColor=#d79b00;" parent="1" vertex="1">
                    <mxGeometry x="-410" y="120" width="80" height="80" as="geometry"/>
                </mxCell>
                <mxCell id="43" value="&lt;font style=&quot;font-size: 24px;&quot;&gt;j + 2&lt;/font&gt;" style="ellipse;whiteSpace=wrap;html=1;aspect=fixed;fillColor=#ffe6cc;strokeColor=#d79b00;" parent="1" vertex="1">
                    <mxGeometry x="-410" y="320" width="80" height="80" as="geometry"/>
                </mxCell>
                <mxCell id="45" style="edgeStyle=none;html=1;exitX=1;exitY=0;exitDx=0;exitDy=0;entryX=0;entryY=1;entryDx=0;entryDy=0;strokeWidth=3;fillColor=#f8cecc;strokeColor=#b85450;dashed=1;" parent="1" source="39" target="42" edge="1">
                    <mxGeometry relative="1" as="geometry">
                        <mxPoint x="-570" y="338.94" as="sourcePoint"/>
                        <mxPoint x="-410" y="338.94" as="targetPoint"/>
                    </mxGeometry>
                </mxCell>
                <mxCell id="49" value="&lt;font style=&quot;font-size: 24px;&quot;&gt;0&lt;/font&gt;" style="edgeLabel;html=1;align=center;verticalAlign=middle;resizable=0;points=[];labelBackgroundColor=none;" parent="45" vertex="1" connectable="0">
                    <mxGeometry x="0.1843" y="3" relative="1" as="geometry">
                        <mxPoint x="-59" y="36" as="offset"/>
                    </mxGeometry>
                </mxCell>
                <mxCell id="47" style="edgeStyle=none;html=1;exitX=1;exitY=1;exitDx=0;exitDy=0;entryX=0;entryY=0;entryDx=0;entryDy=0;strokeWidth=3;fillColor=#e1d5e7;strokeColor=#9673a6;" parent="1" source="38" target="43" edge="1">
                    <mxGeometry relative="1" as="geometry">
                        <mxPoint x="-580" y="230" as="sourcePoint"/>
                        <mxPoint x="-420" y="230" as="targetPoint"/>
                    </mxGeometry>
                </mxCell>
                <mxCell id="50" value="&lt;font style=&quot;font-size: 24px;&quot;&gt;1&lt;/font&gt;" style="edgeLabel;html=1;align=center;verticalAlign=middle;resizable=0;points=[];labelBackgroundColor=none;" parent="47" vertex="1" connectable="0">
                    <mxGeometry x="-0.276" y="1" relative="1" as="geometry">
                        <mxPoint x="5" y="-9" as="offset"/>
                    </mxGeometry>
                </mxCell>
                <mxCell id="53" value="Current State" style="rounded=0;whiteSpace=wrap;html=1;fillColor=#f8cecc;strokeColor=#b85450;" parent="1" vertex="1">
                    <mxGeometry x="-650" y="420" width="80" height="40" as="geometry"/>
                </mxCell>
                <mxCell id="54" value="Next State" style="rounded=0;whiteSpace=wrap;html=1;fillColor=#f8cecc;strokeColor=#b85450;" parent="1" vertex="1">
                    <mxGeometry x="-410" y="420" width="80" height="40" as="geometry"/>
                </mxCell>
                <mxCell id="55" value="&lt;font style=&quot;font-size: 14px;&quot;&gt;State relationship for the path metrics computation&lt;/font&gt;&lt;div&gt;&lt;font style=&quot;font-size: 14px;&quot;&gt;(0 &amp;lt;= j &amp;lt;= 4)&lt;/font&gt;&lt;/div&gt;" style="rounded=1;whiteSpace=wrap;html=1;fillColor=#e1d5e7;strokeColor=#9673a6;" parent="1" vertex="1">
                    <mxGeometry x="-650" y="520" width="330" height="40" as="geometry"/>
                </mxCell>
                <mxCell id="56" value="Chuyển trạng thái State trong bộ VD (3, 1, 2)" style="text;strokeColor=none;fillColor=none;html=1;fontSize=24;fontStyle=1;verticalAlign=middle;align=left;" parent="1" vertex="1">
                    <mxGeometry x="-850" width="680" height="80" as="geometry"/>
                </mxCell>
                <mxCell id="58" value="" style="edgeStyle=none;html=1;exitX=0;exitY=0;exitDx=80;exitDy=40;exitPerimeter=0;entryX=0;entryY=0;entryDx=0;entryDy=20;entryPerimeter=0;" parent="1" source="2" target="57" edge="1">
                    <mxGeometry relative="1" as="geometry">
                        <mxPoint x="294" y="240" as="sourcePoint"/>
                        <mxPoint x="614" y="320" as="targetPoint"/>
                        <Array as="points"/>
                    </mxGeometry>
                </mxCell>
                <mxCell id="57" value="metric_path_0" style="externalPins=0;recursiveResize=0;shadow=0;dashed=0;align=center;html=1;strokeWidth=1;shape=mxgraph.rtl.abstract.entity;container=1;collapsible=0;kind=inout;drawPins=0;left=1;right=1;bottom=0;top=0;fillColor=#e1d5e7;strokeColor=#9673a6;" parent="1" vertex="1">
                    <mxGeometry x="389" y="220" width="120" height="40" as="geometry"/>
                </mxCell>
                <mxCell id="59" value="metric_path_1" style="externalPins=0;recursiveResize=0;shadow=0;dashed=0;align=center;html=1;strokeWidth=1;shape=mxgraph.rtl.abstract.entity;container=1;collapsible=0;kind=inout;drawPins=0;left=1;right=1;bottom=0;top=0;fillColor=#e1d5e7;strokeColor=#9673a6;" parent="1" vertex="1">
                    <mxGeometry x="384" y="450" width="120" height="40" as="geometry"/>
                </mxCell>
                <mxCell id="60" style="edgeStyle=none;html=1;exitX=0;exitY=0;exitDx=80;exitDy=40;exitPerimeter=0;entryX=0;entryY=0;entryDx=0;entryDy=20;entryPerimeter=0;" parent="1" source="3" target="59" edge="1">
                    <mxGeometry relative="1" as="geometry"/>
                </mxCell>
                <mxCell id="61" value="decision_select" style="externalPins=0;recursiveResize=0;shadow=0;dashed=0;align=center;html=1;strokeWidth=1;shape=mxgraph.rtl.abstract.entity;container=1;collapsible=0;kind=inout;drawPins=0;left=1;right=1;bottom=0;top=0;fillColor=#e1d5e7;strokeColor=#9673a6;" parent="1" vertex="1">
                    <mxGeometry x="494" y="500" width="120" height="40" as="geometry"/>
                </mxCell>
                <mxCell id="86" value="" style="rounded=1;whiteSpace=wrap;html=1;fillColor=#f5f5f5;fontColor=#333333;strokeColor=#666666;arcSize=9;" parent="1" vertex="1">
                    <mxGeometry x="-690" y="600" width="400" height="285" as="geometry"/>
                </mxCell>
                <mxCell id="67" value="&lt;font style=&quot;font-size: 20px;&quot;&gt;Butterfly_0&lt;/font&gt;" style="rounded=0;whiteSpace=wrap;html=1;fillColor=#fff2cc;strokeColor=#d6b656;" parent="1" vertex="1">
                    <mxGeometry x="-570" y="645" width="160" height="80" as="geometry"/>
                </mxCell>
                <mxCell id="68" value="" style="edgeStyle=none;orthogonalLoop=1;jettySize=auto;html=1;entryX=0;entryY=0.25;entryDx=0;entryDy=0;" parent="1" target="67" edge="1">
                    <mxGeometry width="100" relative="1" as="geometry">
                        <mxPoint x="-650" y="665" as="sourcePoint"/>
                        <mxPoint x="-550" y="665" as="targetPoint"/>
                        <Array as="points"/>
                    </mxGeometry>
                </mxCell>
                <mxCell id="70" value="&lt;font style=&quot;font-size: 24px;&quot;&gt;S0&lt;/font&gt;" style="edgeLabel;html=1;align=center;verticalAlign=middle;resizable=0;points=[];labelBackgroundColor=none;" parent="68" vertex="1" connectable="0">
                    <mxGeometry x="-0.2848" y="2" relative="1" as="geometry">
                        <mxPoint x="-15" y="-13" as="offset"/>
                    </mxGeometry>
                </mxCell>
                <mxCell id="69" value="" style="edgeStyle=none;orthogonalLoop=1;jettySize=auto;html=1;entryX=0;entryY=0.75;entryDx=0;entryDy=0;" parent="1" target="67" edge="1">
                    <mxGeometry width="100" relative="1" as="geometry">
                        <mxPoint x="-650" y="705" as="sourcePoint"/>
                        <mxPoint x="-570" y="735" as="targetPoint"/>
                        <Array as="points"/>
                    </mxGeometry>
                </mxCell>
                <mxCell id="71" value="&lt;font style=&quot;font-size: 24px;&quot;&gt;S1&lt;/font&gt;" style="edgeLabel;html=1;align=center;verticalAlign=middle;resizable=0;points=[];labelBackgroundColor=none;" parent="69" vertex="1" connectable="0">
                    <mxGeometry x="-0.5778" y="1" relative="1" as="geometry">
                        <mxPoint x="-3" y="-14" as="offset"/>
                    </mxGeometry>
                </mxCell>
                <mxCell id="72" value="" style="edgeStyle=none;orthogonalLoop=1;jettySize=auto;html=1;entryX=0;entryY=0.25;entryDx=0;entryDy=0;exitX=1;exitY=0.25;exitDx=0;exitDy=0;" parent="1" source="67" edge="1">
                    <mxGeometry width="100" relative="1" as="geometry">
                        <mxPoint x="-390" y="675" as="sourcePoint"/>
                        <mxPoint x="-330" y="664.7" as="targetPoint"/>
                        <Array as="points"/>
                    </mxGeometry>
                </mxCell>
                <mxCell id="73" value="&lt;font style=&quot;font-size: 24px;&quot;&gt;S0&lt;/font&gt;" style="edgeLabel;html=1;align=center;verticalAlign=middle;resizable=0;points=[];labelBackgroundColor=none;" parent="72" vertex="1" connectable="0">
                    <mxGeometry x="-0.2848" y="2" relative="1" as="geometry">
                        <mxPoint x="25" y="-13" as="offset"/>
                    </mxGeometry>
                </mxCell>
                <mxCell id="74" value="" style="edgeStyle=none;orthogonalLoop=1;jettySize=auto;html=1;entryX=0;entryY=0.75;entryDx=0;entryDy=0;" parent="1" edge="1">
                    <mxGeometry width="100" relative="1" as="geometry">
                        <mxPoint x="-410" y="704.7" as="sourcePoint"/>
                        <mxPoint x="-330" y="704.7" as="targetPoint"/>
                        <Array as="points"/>
                    </mxGeometry>
                </mxCell>
                <mxCell id="75" value="&lt;font style=&quot;font-size: 24px;&quot;&gt;S2&lt;/font&gt;" style="edgeLabel;html=1;align=center;verticalAlign=middle;resizable=0;points=[];labelBackgroundColor=none;" parent="74" vertex="1" connectable="0">
                    <mxGeometry x="-0.5778" y="1" relative="1" as="geometry">
                        <mxPoint x="37" y="-14" as="offset"/>
                    </mxGeometry>
                </mxCell>
                <mxCell id="76" value="&lt;font style=&quot;font-size: 20px;&quot;&gt;Butterfly_1&lt;/font&gt;" style="rounded=0;whiteSpace=wrap;html=1;fillColor=#fff2cc;strokeColor=#d6b656;" parent="1" vertex="1">
                    <mxGeometry x="-570" y="765" width="160" height="80" as="geometry"/>
                </mxCell>
                <mxCell id="77" value="" style="edgeStyle=none;orthogonalLoop=1;jettySize=auto;html=1;entryX=0;entryY=0.25;entryDx=0;entryDy=0;" parent="1" target="76" edge="1">
                    <mxGeometry width="100" relative="1" as="geometry">
                        <mxPoint x="-650" y="785" as="sourcePoint"/>
                        <mxPoint x="-550" y="785" as="targetPoint"/>
                        <Array as="points"/>
                    </mxGeometry>
                </mxCell>
                <mxCell id="78" value="&lt;font style=&quot;font-size: 24px;&quot;&gt;S2&lt;/font&gt;" style="edgeLabel;html=1;align=center;verticalAlign=middle;resizable=0;points=[];labelBackgroundColor=none;" parent="77" vertex="1" connectable="0">
                    <mxGeometry x="-0.2848" y="2" relative="1" as="geometry">
                        <mxPoint x="-15" y="-13" as="offset"/>
                    </mxGeometry>
                </mxCell>
                <mxCell id="79" value="" style="edgeStyle=none;orthogonalLoop=1;jettySize=auto;html=1;entryX=0;entryY=0.75;entryDx=0;entryDy=0;" parent="1" target="76" edge="1">
                    <mxGeometry width="100" relative="1" as="geometry">
                        <mxPoint x="-650" y="825" as="sourcePoint"/>
                        <mxPoint x="-570" y="855" as="targetPoint"/>
                        <Array as="points"/>
                    </mxGeometry>
                </mxCell>
                <mxCell id="80" value="&lt;font style=&quot;font-size: 24px;&quot;&gt;S3&lt;/font&gt;" style="edgeLabel;html=1;align=center;verticalAlign=middle;resizable=0;points=[];labelBackgroundColor=none;" parent="79" vertex="1" connectable="0">
                    <mxGeometry x="-0.5778" y="1" relative="1" as="geometry">
                        <mxPoint x="-3" y="-14" as="offset"/>
                    </mxGeometry>
                </mxCell>
                <mxCell id="81" value="" style="edgeStyle=none;orthogonalLoop=1;jettySize=auto;html=1;entryX=0;entryY=0.25;entryDx=0;entryDy=0;exitX=1;exitY=0.25;exitDx=0;exitDy=0;" parent="1" source="76" edge="1">
                    <mxGeometry width="100" relative="1" as="geometry">
                        <mxPoint x="-390" y="795" as="sourcePoint"/>
                        <mxPoint x="-330" y="784.7" as="targetPoint"/>
                        <Array as="points"/>
                    </mxGeometry>
                </mxCell>
                <mxCell id="82" value="&lt;font style=&quot;font-size: 24px;&quot;&gt;S1&lt;/font&gt;" style="edgeLabel;html=1;align=center;verticalAlign=middle;resizable=0;points=[];labelBackgroundColor=none;" parent="81" vertex="1" connectable="0">
                    <mxGeometry x="-0.2848" y="2" relative="1" as="geometry">
                        <mxPoint x="25" y="-13" as="offset"/>
                    </mxGeometry>
                </mxCell>
                <mxCell id="83" value="" style="edgeStyle=none;orthogonalLoop=1;jettySize=auto;html=1;entryX=0;entryY=0.75;entryDx=0;entryDy=0;" parent="1" edge="1">
                    <mxGeometry width="100" relative="1" as="geometry">
                        <mxPoint x="-410" y="824.7" as="sourcePoint"/>
                        <mxPoint x="-330" y="824.7" as="targetPoint"/>
                        <Array as="points"/>
                    </mxGeometry>
                </mxCell>
                <mxCell id="84" value="&lt;font style=&quot;font-size: 24px;&quot;&gt;S3&lt;/font&gt;" style="edgeLabel;html=1;align=center;verticalAlign=middle;resizable=0;points=[];labelBackgroundColor=none;" parent="83" vertex="1" connectable="0">
                    <mxGeometry x="-0.5778" y="1" relative="1" as="geometry">
                        <mxPoint x="37" y="-14" as="offset"/>
                    </mxGeometry>
                </mxCell>
                <mxCell id="286" style="edgeStyle=none;html=1;exitX=0.5;exitY=0;exitDx=0;exitDy=0;entryX=0;entryY=1;entryDx=0;entryDy=0;" parent="1" source="277" target="283" edge="1">
                    <mxGeometry relative="1" as="geometry"/>
                </mxCell>
                <mxCell id="289" style="edgeStyle=none;html=1;exitX=0.5;exitY=1;exitDx=0;exitDy=0;entryX=0;entryY=0;entryDx=0;entryDy=0;" parent="1" source="277" target="288" edge="1">
                    <mxGeometry relative="1" as="geometry"/>
                </mxCell>
                <mxCell id="277" value="S0" style="whiteSpace=wrap;html=1;fillColor=#fff2cc;strokeColor=#d6b656;" parent="1" vertex="1">
                    <mxGeometry x="359" y="1515" width="40" height="40" as="geometry"/>
                </mxCell>
                <mxCell id="285" style="edgeStyle=none;html=1;exitX=0.5;exitY=0;exitDx=0;exitDy=0;entryX=0.5;entryY=1;entryDx=0;entryDy=0;" parent="1" source="278" target="283" edge="1">
                    <mxGeometry relative="1" as="geometry"/>
                </mxCell>
                <mxCell id="278" value="S1" style="whiteSpace=wrap;html=1;fillColor=#fff2cc;strokeColor=#d6b656;" parent="1" vertex="1">
                    <mxGeometry x="399" y="1515" width="40" height="40" as="geometry"/>
                </mxCell>
                <mxCell id="279" value="" style="edgeStyle=none;orthogonalLoop=1;jettySize=auto;html=1;entryX=0;entryY=0.5;entryDx=0;entryDy=0;exitX=0;exitY=0;exitDx=119.99999999999999;exitDy=20;exitPerimeter=0;" parent="1" source="280" target="277" edge="1">
                    <mxGeometry width="100" relative="1" as="geometry">
                        <mxPoint x="319" y="1545" as="sourcePoint"/>
                        <mxPoint x="319" y="1535" as="targetPoint"/>
                        <Array as="points"/>
                    </mxGeometry>
                </mxCell>
                <mxCell id="280" value="i_data" style="externalPins=0;recursiveResize=0;shadow=0;dashed=0;align=center;html=1;strokeWidth=1;shape=mxgraph.rtl.abstract.entity;container=1;collapsible=0;kind=input;drawPins=0;left=0;right=1;bottom=0;top=0;fillColor=#e1d5e7;strokeColor=#9673a6;" parent="1" vertex="1">
                    <mxGeometry x="159" y="1515" width="120" height="40" as="geometry"/>
                </mxCell>
                <mxCell id="287" style="edgeStyle=none;html=1;exitX=0.5;exitY=0;exitDx=0;exitDy=0;entryX=1;entryY=1;entryDx=0;entryDy=0;" parent="1" source="282" target="283" edge="1">
                    <mxGeometry relative="1" as="geometry"/>
                </mxCell>
                <mxCell id="290" style="edgeStyle=none;html=1;exitX=0.5;exitY=1;exitDx=0;exitDy=0;entryX=1;entryY=0;entryDx=0;entryDy=0;" parent="1" source="282" target="288" edge="1">
                    <mxGeometry relative="1" as="geometry"/>
                </mxCell>
                <mxCell id="282" value="S2" style="whiteSpace=wrap;html=1;fillColor=#fff2cc;strokeColor=#d6b656;" parent="1" vertex="1">
                    <mxGeometry x="439" y="1515" width="40" height="40" as="geometry"/>
                </mxCell>
                <mxCell id="292" style="edgeStyle=none;html=1;exitX=1;exitY=0.5;exitDx=0;exitDy=0;" parent="1" source="283" edge="1">
                    <mxGeometry relative="1" as="geometry">
                        <mxPoint x="539" y="1515" as="targetPoint"/>
                        <Array as="points">
                            <mxPoint x="499" y="1440"/>
                            <mxPoint x="499" y="1515"/>
                        </Array>
                    </mxGeometry>
                </mxCell>
                <mxCell id="283" value="" style="shape=sumEllipse;perimeter=ellipsePerimeter;whiteSpace=wrap;html=1;backgroundOutline=1;fillColor=#f8cecc;strokeColor=#b85450;" parent="1" vertex="1">
                    <mxGeometry x="394" y="1415" width="50" height="50" as="geometry"/>
                </mxCell>
                <mxCell id="293" style="edgeStyle=none;html=1;exitX=1;exitY=0.5;exitDx=0;exitDy=0;" parent="1" source="288" edge="1">
                    <mxGeometry relative="1" as="geometry">
                        <mxPoint x="539" y="1555" as="targetPoint"/>
                        <Array as="points">
                            <mxPoint x="499" y="1630"/>
                            <mxPoint x="499" y="1555"/>
                        </Array>
                    </mxGeometry>
                </mxCell>
                <mxCell id="288" value="" style="shape=sumEllipse;perimeter=ellipsePerimeter;whiteSpace=wrap;html=1;backgroundOutline=1;fillColor=#f8cecc;strokeColor=#b85450;" parent="1" vertex="1">
                    <mxGeometry x="394" y="1605" width="50" height="50" as="geometry"/>
                </mxCell>
                <mxCell id="291" value="o_conv_data" style="externalPins=0;recursiveResize=0;shadow=0;dashed=0;align=center;html=1;strokeWidth=1;shape=mxgraph.rtl.abstract.entity;container=1;collapsible=0;kind=output;drawPins=0;left=1;right=0;bottom=0;top=0;fillColor=#e1d5e7;strokeColor=#9673a6;" parent="1" vertex="1">
                    <mxGeometry x="619" y="1515" width="120" height="40" as="geometry"/>
                </mxCell>
                <mxCell id="294" value="" style="edgeStyle=none;orthogonalLoop=1;jettySize=auto;html=1;entryX=0;entryY=0;entryDx=0;entryDy=20;entryPerimeter=0;" parent="1" target="291" edge="1">
                    <mxGeometry width="100" relative="1" as="geometry">
                        <mxPoint x="539" y="1495" as="sourcePoint"/>
                        <mxPoint x="609" y="1525" as="targetPoint"/>
                        <Array as="points">
                            <mxPoint x="569" y="1535"/>
                        </Array>
                    </mxGeometry>
                </mxCell>
                <mxCell id="296" value="" style="edgeStyle=none;orthogonalLoop=1;jettySize=auto;html=1;" parent="1" edge="1">
                    <mxGeometry width="100" relative="1" as="geometry">
                        <mxPoint x="569" y="1515" as="sourcePoint"/>
                        <mxPoint x="559" y="1555" as="targetPoint"/>
                        <Array as="points">
                            <mxPoint x="549" y="1535"/>
                        </Array>
                    </mxGeometry>
                </mxCell>
                <mxCell id="300" value="Block Convolutional Encoder" style="rounded=1;whiteSpace=wrap;html=1;fillColor=#e1d5e7;strokeColor=#9673a6;" parent="1" vertex="1">
                    <mxGeometry x="306" y="1685" width="276" height="40" as="geometry"/>
                </mxCell>
                <mxCell id="318" value="State" style="rounded=1;whiteSpace=wrap;html=1;fillColor=#e1d5e7;strokeColor=#9673a6;" parent="1" vertex="1">
                    <mxGeometry x="-600" y="1760" width="80" height="40" as="geometry"/>
                </mxCell>
                <mxCell id="319" value="nState" style="rounded=1;whiteSpace=wrap;html=1;fillColor=#e1d5e7;strokeColor=#9673a6;" parent="1" vertex="1">
                    <mxGeometry x="-400" y="1760" width="80" height="40" as="geometry"/>
                </mxCell>
                <mxCell id="274" style="edgeStyle=none;html=1;exitX=1;exitY=0.5;exitDx=0;exitDy=0;entryX=0;entryY=0.5;entryDx=0;entryDy=0;dashed=1;fillColor=#d5e8d4;strokeColor=light-dark(#8bd85f, #446e2c);" parent="1" source="257" target="270" edge="1">
                    <mxGeometry relative="1" as="geometry"/>
                </mxCell>
                <mxCell id="301" value="&lt;font style=&quot;font-size: 20px;&quot;&gt;00/0&lt;/font&gt;" style="edgeLabel;html=1;align=center;verticalAlign=middle;resizable=0;points=[];labelBackgroundColor=none;" parent="274" vertex="1" connectable="0">
                    <mxGeometry x="-0.1364" relative="1" as="geometry">
                        <mxPoint x="8" as="offset"/>
                    </mxGeometry>
                </mxCell>
                <mxCell id="305" value="&lt;font style=&quot;font-size: 20px;&quot;&gt;11/0&lt;/font&gt;" style="edgeLabel;html=1;align=center;verticalAlign=middle;resizable=0;points=[];labelBackgroundColor=none;rotation=-35;" parent="274" vertex="1" connectable="0">
                    <mxGeometry x="-0.1364" relative="1" as="geometry">
                        <mxPoint x="18" y="70" as="offset"/>
                    </mxGeometry>
                </mxCell>
                <mxCell id="306" value="&lt;font style=&quot;font-size: 20px;&quot;&gt;00/1&lt;/font&gt;" style="edgeLabel;html=1;align=center;verticalAlign=middle;resizable=0;points=[];labelBackgroundColor=none;rotation=35;" parent="274" vertex="1" connectable="0">
                    <mxGeometry x="-0.1364" relative="1" as="geometry">
                        <mxPoint x="8" y="160" as="offset"/>
                    </mxGeometry>
                </mxCell>
                <mxCell id="309" value="&lt;font style=&quot;font-size: 20px;&quot;&gt;10/0&lt;/font&gt;" style="edgeLabel;html=1;align=center;verticalAlign=middle;resizable=0;points=[];labelBackgroundColor=none;rotation=-35;" parent="274" vertex="1" connectable="0">
                    <mxGeometry x="-0.1364" relative="1" as="geometry">
                        <mxPoint x="8" y="200" as="offset"/>
                    </mxGeometry>
                </mxCell>
                <mxCell id="310" value="&lt;font style=&quot;font-size: 20px;&quot;&gt;01/1&lt;/font&gt;" style="edgeLabel;html=1;align=center;verticalAlign=middle;resizable=0;points=[];labelBackgroundColor=none;rotation=35;" parent="274" vertex="1" connectable="0">
                    <mxGeometry x="-0.1364" relative="1" as="geometry">
                        <mxPoint x="18" y="286" as="offset"/>
                    </mxGeometry>
                </mxCell>
                <mxCell id="314" value="&lt;font style=&quot;font-size: 20px;&quot;&gt;01/0&lt;/font&gt;" style="edgeLabel;html=1;align=center;verticalAlign=middle;resizable=0;points=[];labelBackgroundColor=none;rotation=-50;" parent="274" vertex="1" connectable="0">
                    <mxGeometry x="-0.1364" relative="1" as="geometry">
                        <mxPoint x="-2" y="250" as="offset"/>
                    </mxGeometry>
                </mxCell>
                <mxCell id="315" value="&lt;font style=&quot;font-size: 20px;&quot;&gt;10/1&lt;/font&gt;" style="edgeLabel;html=1;align=center;verticalAlign=middle;resizable=0;points=[];labelBackgroundColor=none;" parent="274" vertex="1" connectable="0">
                    <mxGeometry x="-0.1364" relative="1" as="geometry">
                        <mxPoint x="8" y="360" as="offset"/>
                    </mxGeometry>
                </mxCell>
                <mxCell id="275" style="edgeStyle=none;html=1;exitX=1;exitY=1;exitDx=0;exitDy=0;entryX=0;entryY=0;entryDx=0;entryDy=0;fillColor=#dae8fc;strokeColor=#6666FF;" parent="1" source="257" target="272" edge="1">
                    <mxGeometry relative="1" as="geometry"/>
                </mxCell>
                <mxCell id="302" value="&lt;font style=&quot;font-size: 20px;&quot;&gt;11/1&lt;/font&gt;" style="edgeLabel;html=1;align=center;verticalAlign=middle;resizable=0;points=[];labelBackgroundColor=none;rotation=55;" parent="275" vertex="1" connectable="0">
                    <mxGeometry x="-0.1142" relative="1" as="geometry">
                        <mxPoint as="offset"/>
                    </mxGeometry>
                </mxCell>
                <mxCell id="257" value="&lt;font style=&quot;font-size: 24px;&quot;&gt;S0&lt;/font&gt;&lt;div&gt;&lt;font style=&quot;font-size: 11px;&quot;&gt;paht_metrc_0&lt;/font&gt;&lt;/div&gt;" style="ellipse;whiteSpace=wrap;html=1;aspect=fixed;fillColor=#fff2cc;strokeColor=#d6b656;" parent="1" vertex="1">
                    <mxGeometry x="-600" y="1280" width="80" height="80" as="geometry"/>
                </mxCell>
                <mxCell id="303" style="edgeStyle=none;html=1;exitX=1;exitY=0.5;exitDx=0;exitDy=0;entryX=0;entryY=1;entryDx=0;entryDy=0;dashed=1;fillColor=#d5e8d4;strokeColor=light-dark(#8bd85f, #446e2c);" parent="1" source="267" target="270" edge="1">
                    <mxGeometry relative="1" as="geometry"/>
                </mxCell>
                <mxCell id="304" style="edgeStyle=none;html=1;exitX=1;exitY=0.5;exitDx=0;exitDy=0;entryX=0;entryY=0;entryDx=0;entryDy=0;fillColor=#dae8fc;strokeColor=#6666FF;" parent="1" source="267" target="272" edge="1">
                    <mxGeometry relative="1" as="geometry"/>
                </mxCell>
                <mxCell id="267" value="&lt;font style=&quot;font-size: 24px;&quot;&gt;S1&lt;/font&gt;&lt;div&gt;&lt;font style=&quot;font-size: 11px;&quot;&gt;paht_metrc_1&lt;/font&gt;&lt;/div&gt;" style="ellipse;whiteSpace=wrap;html=1;aspect=fixed;fillColor=#fff2cc;strokeColor=#d6b656;" parent="1" vertex="1">
                    <mxGeometry x="-600" y="1400" width="80" height="80" as="geometry"/>
                </mxCell>
                <mxCell id="307" style="edgeStyle=none;html=1;exitX=1;exitY=0.5;exitDx=0;exitDy=0;entryX=0;entryY=1;entryDx=0;entryDy=0;dashed=1;fillColor=#d5e8d4;strokeColor=light-dark(#8bd85f, #446e2c);" parent="1" source="268" target="271" edge="1">
                    <mxGeometry relative="1" as="geometry"/>
                </mxCell>
                <mxCell id="308" style="edgeStyle=none;html=1;exitX=1;exitY=0.5;exitDx=0;exitDy=0;entryX=0;entryY=0;entryDx=0;entryDy=0;fillColor=#dae8fc;strokeColor=#6666FF;" parent="1" source="268" target="273" edge="1">
                    <mxGeometry relative="1" as="geometry"/>
                </mxCell>
                <mxCell id="268" value="&lt;font style=&quot;font-size: 24px;&quot;&gt;S2&lt;/font&gt;&lt;div&gt;&lt;font style=&quot;font-size: 11px;&quot;&gt;paht_metrc_2&lt;/font&gt;&lt;/div&gt;" style="ellipse;whiteSpace=wrap;html=1;aspect=fixed;fillColor=#fff2cc;strokeColor=#d6b656;" parent="1" vertex="1">
                    <mxGeometry x="-600" y="1520" width="80" height="80" as="geometry"/>
                </mxCell>
                <mxCell id="312" style="edgeStyle=none;html=1;exitX=1;exitY=0;exitDx=0;exitDy=0;entryX=0;entryY=1;entryDx=0;entryDy=0;dashed=1;fillColor=#d5e8d4;strokeColor=light-dark(#8bd85f, #446e2c);" parent="1" source="269" target="271" edge="1">
                    <mxGeometry relative="1" as="geometry"/>
                </mxCell>
                <mxCell id="313" style="edgeStyle=none;html=1;exitX=1;exitY=0.5;exitDx=0;exitDy=0;entryX=0;entryY=0.5;entryDx=0;entryDy=0;fillColor=#dae8fc;strokeColor=#6666FF;" parent="1" source="269" target="273" edge="1">
                    <mxGeometry relative="1" as="geometry"/>
                </mxCell>
                <mxCell id="269" value="&lt;font style=&quot;font-size: 24px;&quot;&gt;S3&lt;/font&gt;&lt;div&gt;&lt;font style=&quot;font-size: 11px;&quot;&gt;paht_metrc_3&lt;/font&gt;&lt;/div&gt;" style="ellipse;whiteSpace=wrap;html=1;aspect=fixed;fillColor=#fff2cc;strokeColor=#d6b656;" parent="1" vertex="1">
                    <mxGeometry x="-600" y="1640" width="80" height="80" as="geometry"/>
                </mxCell>
                <mxCell id="270" value="&lt;font style=&quot;font-size: 24px;&quot;&gt;S0&lt;/font&gt;&lt;div&gt;&lt;font style=&quot;font-size: 11px;&quot;&gt;paht_metrc_0&lt;/font&gt;&lt;/div&gt;" style="ellipse;whiteSpace=wrap;html=1;aspect=fixed;fillColor=#ffe6cc;strokeColor=#d79b00;" parent="1" vertex="1">
                    <mxGeometry x="-400" y="1280" width="80" height="80" as="geometry"/>
                </mxCell>
                <mxCell id="271" value="&lt;font style=&quot;font-size: 24px;&quot;&gt;S1&lt;/font&gt;&lt;div&gt;&lt;font style=&quot;font-size: 11px;&quot;&gt;paht_metrc_1&lt;/font&gt;&lt;/div&gt;" style="ellipse;whiteSpace=wrap;html=1;aspect=fixed;fillColor=#ffe6cc;strokeColor=#d79b00;" parent="1" vertex="1">
                    <mxGeometry x="-400" y="1400" width="80" height="80" as="geometry"/>
                </mxCell>
                <mxCell id="272" value="&lt;font style=&quot;font-size: 24px;&quot;&gt;S2&lt;/font&gt;&lt;div&gt;&lt;font style=&quot;font-size: 11px;&quot;&gt;paht_metrc_2&lt;/font&gt;&lt;/div&gt;" style="ellipse;whiteSpace=wrap;html=1;aspect=fixed;fillColor=#ffe6cc;strokeColor=#d79b00;" parent="1" vertex="1">
                    <mxGeometry x="-400" y="1520" width="80" height="80" as="geometry"/>
                </mxCell>
                <mxCell id="273" value="&lt;font style=&quot;font-size: 24px;&quot;&gt;S3&lt;/font&gt;&lt;div&gt;&lt;font style=&quot;font-size: 11px;&quot;&gt;paht_metrc_3&lt;/font&gt;&lt;/div&gt;" style="ellipse;whiteSpace=wrap;html=1;aspect=fixed;fillColor=#ffe6cc;strokeColor=#d79b00;" parent="1" vertex="1">
                    <mxGeometry x="-400" y="1640" width="80" height="80" as="geometry"/>
                </mxCell>
                <mxCell id="321" value="i_BM_" style="externalPins=0;recursiveResize=0;shadow=0;dashed=0;align=center;html=1;strokeWidth=1;shape=mxgraph.rtl.abstract.entity;container=1;collapsible=0;kind=input;drawPins=0;left=0;right=1;bottom=0;top=0;fillColor=#d5e8d4;strokeColor=#82b366;" parent="1" vertex="1">
                    <mxGeometry x="132" y="740" width="120" height="40" as="geometry"/>
                </mxCell>
                <mxCell id="322" value="i_PM_" style="externalPins=0;recursiveResize=0;shadow=0;dashed=0;align=center;html=1;strokeWidth=1;shape=mxgraph.rtl.abstract.entity;container=1;collapsible=0;kind=input;drawPins=0;left=0;right=1;bottom=0;top=0;fillColor=#d5e8d4;strokeColor=#82b366;" parent="1" vertex="1">
                    <mxGeometry x="132" y="780" width="120" height="40" as="geometry"/>
                </mxCell>
                <mxCell id="323" value="i_BM_" style="externalPins=0;recursiveResize=0;shadow=0;dashed=0;align=center;html=1;strokeWidth=1;shape=mxgraph.rtl.abstract.entity;container=1;collapsible=0;kind=input;drawPins=0;left=0;right=1;bottom=0;top=0;fillColor=#d5e8d4;strokeColor=#82b366;" parent="1" vertex="1">
                    <mxGeometry x="132" y="820" width="120" height="40" as="geometry"/>
                </mxCell>
                <mxCell id="328" style="edgeStyle=none;html=1;exitX=0;exitY=0;exitDx=120;exitDy=20;exitPerimeter=0;entryX=-0.002;entryY=0.8;entryDx=0;entryDy=0;entryPerimeter=0;" parent="1" source="324" target="37" edge="1">
                    <mxGeometry relative="1" as="geometry">
                        <mxPoint x="278" y="880.1290322580644" as="targetPoint"/>
                    </mxGeometry>
                </mxCell>
                <mxCell id="324" value="i_PM_" style="externalPins=0;recursiveResize=0;shadow=0;dashed=0;align=center;html=1;strokeWidth=1;shape=mxgraph.rtl.abstract.entity;container=1;collapsible=0;kind=input;drawPins=0;left=0;right=1;bottom=0;top=0;fillColor=#d5e8d4;strokeColor=#82b366;" parent="1" vertex="1">
                    <mxGeometry x="132" y="860" width="120" height="40" as="geometry"/>
                </mxCell>
                <mxCell id="325" style="edgeStyle=none;html=1;exitX=0;exitY=0;exitDx=120;exitDy=20;exitPerimeter=0;entryX=0.003;entryY=0.201;entryDx=0;entryDy=0;entryPerimeter=0;" parent="1" source="321" target="37" edge="1">
                    <mxGeometry relative="1" as="geometry"/>
                </mxCell>
                <mxCell id="326" style="edgeStyle=none;html=1;exitX=0;exitY=0;exitDx=120;exitDy=20;exitPerimeter=0;" parent="1" source="322" edge="1">
                    <mxGeometry relative="1" as="geometry">
                        <mxPoint x="286" y="800" as="targetPoint"/>
                    </mxGeometry>
                </mxCell>
                <mxCell id="327" style="edgeStyle=none;html=1;exitX=0;exitY=0;exitDx=120;exitDy=20;exitPerimeter=0;" parent="1" source="323" edge="1">
                    <mxGeometry relative="1" as="geometry">
                        <mxPoint x="285" y="840" as="targetPoint"/>
                    </mxGeometry>
                </mxCell>
                <mxCell id="330" style="edgeStyle=none;html=1;exitX=1;exitY=0.5;exitDx=0;exitDy=0;entryX=0;entryY=0;entryDx=0;entryDy=20;entryPerimeter=0;" parent="1" source="37" target="329" edge="1">
                    <mxGeometry relative="1" as="geometry"/>
                </mxCell>
                <mxCell id="535" value="" style="edgeStyle=none;html=1;" edge="1" parent="1" source="329" target="347">
                    <mxGeometry relative="1" as="geometry"/>
                </mxCell>
                <mxCell id="329" value="o_PM_" style="externalPins=0;recursiveResize=0;shadow=0;dashed=0;align=center;html=1;strokeWidth=1;shape=mxgraph.rtl.abstract.entity;container=1;collapsible=0;kind=output;drawPins=0;left=1;right=0;bottom=0;top=0;fillColor=#dae8fc;strokeColor=#6c8ebf;" parent="1" vertex="1">
                    <mxGeometry x="558" y="799.9958620689656" width="120" height="40" as="geometry"/>
                </mxCell>
                <mxCell id="333" style="edgeStyle=none;html=1;exitX=1;exitY=1;exitDx=0;exitDy=0;entryX=1;entryY=1;entryDx=0;entryDy=0;jumpStyle=none;dashed=1;" parent="1" source="37" target="30" edge="1">
                    <mxGeometry relative="1" as="geometry"/>
                </mxCell>
                <mxCell id="334" style="edgeStyle=none;html=1;exitX=0;exitY=1;exitDx=0;exitDy=0;entryX=0;entryY=1;entryDx=0;entryDy=0;jumpStyle=none;dashed=1;" parent="1" source="37" target="30" edge="1">
                    <mxGeometry relative="1" as="geometry"/>
                </mxCell>
                <mxCell id="339" value="&lt;span style=&quot;color: rgb(0, 0, 0);&quot;&gt;Add Compare Select Unit&lt;/span&gt;" style="rounded=1;whiteSpace=wrap;html=1;fillColor=#e1d5e7;strokeColor=#9673a6;" parent="1" vertex="1">
                    <mxGeometry x="265.5" y="960" width="276" height="40" as="geometry"/>
                </mxCell>
                <mxCell id="342" style="edgeStyle=none;html=1;exitX=1;exitY=0.5;exitDx=0;exitDy=0;entryX=0;entryY=0;entryDx=0;entryDy=20;entryPerimeter=0;" parent="1" source="347" edge="1">
                    <mxGeometry relative="1" as="geometry">
                        <mxPoint x="558" y="820" as="targetPoint"/>
                    </mxGeometry>
                </mxCell>
                <mxCell id="343" style="edgeStyle=none;html=1;exitX=0;exitY=0;exitDx=120;exitDy=20;exitPerimeter=0;entryX=0.003;entryY=0.201;entryDx=0;entryDy=0;entryPerimeter=0;" parent="1" target="347" edge="1">
                    <mxGeometry relative="1" as="geometry">
                        <mxPoint x="252" y="760" as="sourcePoint"/>
                    </mxGeometry>
                </mxCell>
                <mxCell id="344" style="edgeStyle=none;html=1;exitX=0;exitY=0;exitDx=120;exitDy=20;exitPerimeter=0;" parent="1" edge="1">
                    <mxGeometry relative="1" as="geometry">
                        <mxPoint x="252" y="800" as="sourcePoint"/>
                        <mxPoint x="286" y="800" as="targetPoint"/>
                    </mxGeometry>
                </mxCell>
                <mxCell id="345" style="edgeStyle=none;html=1;exitX=0;exitY=0;exitDx=120;exitDy=20;exitPerimeter=0;" parent="1" edge="1">
                    <mxGeometry relative="1" as="geometry">
                        <mxPoint x="252" y="840" as="sourcePoint"/>
                        <mxPoint x="285" y="840" as="targetPoint"/>
                    </mxGeometry>
                </mxCell>
                <mxCell id="346" style="edgeStyle=none;html=1;exitX=0;exitY=0;exitDx=120;exitDy=20;exitPerimeter=0;entryX=-0.002;entryY=0.8;entryDx=0;entryDy=0;entryPerimeter=0;" parent="1" target="347" edge="1">
                    <mxGeometry relative="1" as="geometry">
                        <mxPoint x="278" y="880.1290322580644" as="targetPoint"/>
                        <mxPoint x="252" y="880" as="sourcePoint"/>
                    </mxGeometry>
                </mxCell>
                <mxCell id="347" value="&lt;font style=&quot;font-size: 20px;&quot;&gt;ACSU&lt;/font&gt;" style="rounded=1;whiteSpace=wrap;html=1;fillColor=#ffe6cc;strokeColor=#d79b00;arcSize=0;" parent="1" vertex="1">
                    <mxGeometry x="286" y="720" width="235" height="200" as="geometry"/>
                </mxCell>
                <mxCell id="360" style="edgeStyle=none;html=1;exitX=1;exitY=0.5;exitDx=0;exitDy=0;entryX=0;entryY=0;entryDx=0;entryDy=20;entryPerimeter=0;" parent="1" source="365" edge="1">
                    <mxGeometry relative="1" as="geometry">
                        <mxPoint x="1566" y="180" as="targetPoint"/>
                    </mxGeometry>
                </mxCell>
                <mxCell id="361" style="edgeStyle=none;html=1;exitX=0;exitY=0;exitDx=120;exitDy=20;exitPerimeter=0;entryX=0.003;entryY=0.201;entryDx=0;entryDy=0;entryPerimeter=0;" parent="1" source="367" target="365" edge="1">
                    <mxGeometry relative="1" as="geometry">
                        <mxPoint x="1260" y="120" as="sourcePoint"/>
                    </mxGeometry>
                </mxCell>
                <mxCell id="362" style="edgeStyle=none;html=1;exitX=0;exitY=0;exitDx=120;exitDy=20;exitPerimeter=0;" parent="1" source="411" edge="1">
                    <mxGeometry relative="1" as="geometry">
                        <mxPoint x="1260" y="160" as="sourcePoint"/>
                        <mxPoint x="1294" y="160" as="targetPoint"/>
                    </mxGeometry>
                </mxCell>
                <mxCell id="363" style="edgeStyle=none;html=1;exitX=0;exitY=0;exitDx=120;exitDy=20;exitPerimeter=0;" parent="1" source="412" edge="1">
                    <mxGeometry relative="1" as="geometry">
                        <mxPoint x="1260" y="200" as="sourcePoint"/>
                        <mxPoint x="1293" y="200" as="targetPoint"/>
                    </mxGeometry>
                </mxCell>
                <mxCell id="364" style="edgeStyle=none;html=1;exitX=0;exitY=0;exitDx=120;exitDy=20;exitPerimeter=0;entryX=-0.002;entryY=0.8;entryDx=0;entryDy=0;entryPerimeter=0;" parent="1" source="413" target="365" edge="1">
                    <mxGeometry relative="1" as="geometry">
                        <mxPoint x="1286" y="240.1290322580644" as="targetPoint"/>
                        <mxPoint x="1260" y="240" as="sourcePoint"/>
                    </mxGeometry>
                </mxCell>
                <mxCell id="365" value="&lt;font style=&quot;font-size: 20px;&quot;&gt;ACSU0&lt;/font&gt;" style="rounded=1;whiteSpace=wrap;html=1;fillColor=#ffe6cc;strokeColor=#d79b00;arcSize=0;" parent="1" vertex="1">
                    <mxGeometry x="1294" y="80" width="235" height="200" as="geometry"/>
                </mxCell>
                <mxCell id="366" value="o_PM_0" style="externalPins=0;recursiveResize=0;shadow=0;dashed=0;align=center;html=1;strokeWidth=1;shape=mxgraph.rtl.abstract.entity;container=1;collapsible=0;kind=output;drawPins=0;left=1;right=0;bottom=0;top=0;fillColor=#dae8fc;strokeColor=#6c8ebf;" parent="1" vertex="1">
                    <mxGeometry x="1566" y="159.9958620689656" width="120" height="40" as="geometry"/>
                </mxCell>
                <mxCell id="367" value="i_BM_0" style="externalPins=0;recursiveResize=0;shadow=0;dashed=0;align=center;html=1;strokeWidth=1;shape=mxgraph.rtl.abstract.entity;container=1;collapsible=0;kind=inout;drawPins=0;left=1;right=1;bottom=0;top=0;fillColor=#e1d5e7;strokeColor=#9673a6;" parent="1" vertex="1">
                    <mxGeometry x="1140" y="100" width="120" height="40" as="geometry"/>
                </mxCell>
                <mxCell id="411" value="i_PM_0" style="externalPins=0;recursiveResize=0;shadow=0;dashed=0;align=center;html=1;strokeWidth=1;shape=mxgraph.rtl.abstract.entity;container=1;collapsible=0;kind=inout;drawPins=0;left=1;right=1;bottom=0;top=0;fillColor=#e1d5e7;strokeColor=#9673a6;" parent="1" vertex="1">
                    <mxGeometry x="1140" y="140" width="120" height="40" as="geometry"/>
                </mxCell>
                <mxCell id="412" value="i_BM_3" style="externalPins=0;recursiveResize=0;shadow=0;dashed=0;align=center;html=1;strokeWidth=1;shape=mxgraph.rtl.abstract.entity;container=1;collapsible=0;kind=inout;drawPins=0;left=1;right=1;bottom=0;top=0;fillColor=#e1d5e7;strokeColor=#9673a6;" parent="1" vertex="1">
                    <mxGeometry x="1140" y="180" width="120" height="40" as="geometry"/>
                </mxCell>
                <mxCell id="413" value="i_PM_1" style="externalPins=0;recursiveResize=0;shadow=0;dashed=0;align=center;html=1;strokeWidth=1;shape=mxgraph.rtl.abstract.entity;container=1;collapsible=0;kind=inout;drawPins=0;left=1;right=1;bottom=0;top=0;fillColor=#e1d5e7;strokeColor=#9673a6;" parent="1" vertex="1">
                    <mxGeometry x="1140" y="220" width="120" height="40" as="geometry"/>
                </mxCell>
                <mxCell id="415" style="edgeStyle=none;html=1;exitX=1;exitY=0.5;exitDx=0;exitDy=0;entryX=0;entryY=0;entryDx=0;entryDy=20;entryPerimeter=0;" parent="1" source="420" edge="1">
                    <mxGeometry relative="1" as="geometry">
                        <mxPoint x="1566" y="380" as="targetPoint"/>
                    </mxGeometry>
                </mxCell>
                <mxCell id="416" style="edgeStyle=none;html=1;exitX=0;exitY=0;exitDx=120;exitDy=20;exitPerimeter=0;entryX=0.003;entryY=0.201;entryDx=0;entryDy=0;entryPerimeter=0;" parent="1" source="422" target="420" edge="1">
                    <mxGeometry relative="1" as="geometry">
                        <mxPoint x="1260" y="320" as="sourcePoint"/>
                    </mxGeometry>
                </mxCell>
                <mxCell id="417" style="edgeStyle=none;html=1;exitX=0;exitY=0;exitDx=120;exitDy=20;exitPerimeter=0;" parent="1" source="423" edge="1">
                    <mxGeometry relative="1" as="geometry">
                        <mxPoint x="1260" y="360" as="sourcePoint"/>
                        <mxPoint x="1294" y="360" as="targetPoint"/>
                    </mxGeometry>
                </mxCell>
                <mxCell id="418" style="edgeStyle=none;html=1;exitX=0;exitY=0;exitDx=120;exitDy=20;exitPerimeter=0;" parent="1" source="424" edge="1">
                    <mxGeometry relative="1" as="geometry">
                        <mxPoint x="1260" y="400" as="sourcePoint"/>
                        <mxPoint x="1293" y="400" as="targetPoint"/>
                    </mxGeometry>
                </mxCell>
                <mxCell id="419" style="edgeStyle=none;html=1;exitX=0;exitY=0;exitDx=120;exitDy=20;exitPerimeter=0;entryX=-0.002;entryY=0.8;entryDx=0;entryDy=0;entryPerimeter=0;" parent="1" source="425" target="420" edge="1">
                    <mxGeometry relative="1" as="geometry">
                        <mxPoint x="1286" y="440.1290322580644" as="targetPoint"/>
                        <mxPoint x="1260" y="440" as="sourcePoint"/>
                    </mxGeometry>
                </mxCell>
                <mxCell id="420" value="&lt;font style=&quot;font-size: 20px;&quot;&gt;ACSU1&lt;/font&gt;" style="rounded=1;whiteSpace=wrap;html=1;fillColor=#ffe6cc;strokeColor=#d79b00;arcSize=0;" parent="1" vertex="1">
                    <mxGeometry x="1294" y="280" width="235" height="200" as="geometry"/>
                </mxCell>
                <mxCell id="421" value="o_PM_1" style="externalPins=0;recursiveResize=0;shadow=0;dashed=0;align=center;html=1;strokeWidth=1;shape=mxgraph.rtl.abstract.entity;container=1;collapsible=0;kind=output;drawPins=0;left=1;right=0;bottom=0;top=0;fillColor=#dae8fc;strokeColor=#6c8ebf;" parent="1" vertex="1">
                    <mxGeometry x="1566" y="359.9958620689656" width="120" height="40" as="geometry"/>
                </mxCell>
                <mxCell id="422" value="i_BM_2" style="externalPins=0;recursiveResize=0;shadow=0;dashed=0;align=center;html=1;strokeWidth=1;shape=mxgraph.rtl.abstract.entity;container=1;collapsible=0;kind=inout;drawPins=0;left=1;right=1;bottom=0;top=0;fillColor=#e1d5e7;strokeColor=#9673a6;" parent="1" vertex="1">
                    <mxGeometry x="1140" y="300" width="120" height="40" as="geometry"/>
                </mxCell>
                <mxCell id="423" value="i_PM_2" style="externalPins=0;recursiveResize=0;shadow=0;dashed=0;align=center;html=1;strokeWidth=1;shape=mxgraph.rtl.abstract.entity;container=1;collapsible=0;kind=inout;drawPins=0;left=1;right=1;bottom=0;top=0;fillColor=#e1d5e7;strokeColor=#9673a6;" parent="1" vertex="1">
                    <mxGeometry x="1140" y="340" width="120" height="40" as="geometry"/>
                </mxCell>
                <mxCell id="424" value="i_BM_1" style="externalPins=0;recursiveResize=0;shadow=0;dashed=0;align=center;html=1;strokeWidth=1;shape=mxgraph.rtl.abstract.entity;container=1;collapsible=0;kind=inout;drawPins=0;left=1;right=1;bottom=0;top=0;fillColor=#e1d5e7;strokeColor=#9673a6;" parent="1" vertex="1">
                    <mxGeometry x="1140" y="380" width="120" height="40" as="geometry"/>
                </mxCell>
                <mxCell id="425" value="i_PM_3" style="externalPins=0;recursiveResize=0;shadow=0;dashed=0;align=center;html=1;strokeWidth=1;shape=mxgraph.rtl.abstract.entity;container=1;collapsible=0;kind=inout;drawPins=0;left=1;right=1;bottom=0;top=0;fillColor=#e1d5e7;strokeColor=#9673a6;" parent="1" vertex="1">
                    <mxGeometry x="1140" y="420" width="120" height="40" as="geometry"/>
                </mxCell>
                <mxCell id="426" style="edgeStyle=none;html=1;exitX=1;exitY=0.5;exitDx=0;exitDy=0;entryX=0;entryY=0;entryDx=0;entryDy=20;entryPerimeter=0;" parent="1" source="431" edge="1">
                    <mxGeometry relative="1" as="geometry">
                        <mxPoint x="1566" y="580" as="targetPoint"/>
                    </mxGeometry>
                </mxCell>
                <mxCell id="427" style="edgeStyle=none;html=1;exitX=0;exitY=0;exitDx=120;exitDy=20;exitPerimeter=0;entryX=0.003;entryY=0.201;entryDx=0;entryDy=0;entryPerimeter=0;" parent="1" source="433" target="431" edge="1">
                    <mxGeometry relative="1" as="geometry">
                        <mxPoint x="1260" y="520" as="sourcePoint"/>
                    </mxGeometry>
                </mxCell>
                <mxCell id="428" style="edgeStyle=none;html=1;exitX=0;exitY=0;exitDx=120;exitDy=20;exitPerimeter=0;" parent="1" source="434" edge="1">
                    <mxGeometry relative="1" as="geometry">
                        <mxPoint x="1260" y="560" as="sourcePoint"/>
                        <mxPoint x="1294" y="560" as="targetPoint"/>
                    </mxGeometry>
                </mxCell>
                <mxCell id="429" style="edgeStyle=none;html=1;exitX=0;exitY=0;exitDx=120;exitDy=20;exitPerimeter=0;" parent="1" source="435" edge="1">
                    <mxGeometry relative="1" as="geometry">
                        <mxPoint x="1260" y="600" as="sourcePoint"/>
                        <mxPoint x="1293" y="600" as="targetPoint"/>
                    </mxGeometry>
                </mxCell>
                <mxCell id="430" style="edgeStyle=none;html=1;exitX=0;exitY=0;exitDx=120;exitDy=20;exitPerimeter=0;entryX=-0.002;entryY=0.8;entryDx=0;entryDy=0;entryPerimeter=0;" parent="1" source="436" target="431" edge="1">
                    <mxGeometry relative="1" as="geometry">
                        <mxPoint x="1286" y="640.1290322580644" as="targetPoint"/>
                        <mxPoint x="1260" y="640" as="sourcePoint"/>
                    </mxGeometry>
                </mxCell>
                <mxCell id="431" value="&lt;font style=&quot;font-size: 20px;&quot;&gt;ACSU2&lt;/font&gt;" style="rounded=1;whiteSpace=wrap;html=1;fillColor=#ffe6cc;strokeColor=#d79b00;arcSize=0;" parent="1" vertex="1">
                    <mxGeometry x="1294" y="480" width="235" height="200" as="geometry"/>
                </mxCell>
                <mxCell id="432" value="o_PM_2" style="externalPins=0;recursiveResize=0;shadow=0;dashed=0;align=center;html=1;strokeWidth=1;shape=mxgraph.rtl.abstract.entity;container=1;collapsible=0;kind=output;drawPins=0;left=1;right=0;bottom=0;top=0;fillColor=#dae8fc;strokeColor=#6c8ebf;" parent="1" vertex="1">
                    <mxGeometry x="1566" y="559.9958620689656" width="120" height="40" as="geometry"/>
                </mxCell>
                <mxCell id="433" value="i_BM_3" style="externalPins=0;recursiveResize=0;shadow=0;dashed=0;align=center;html=1;strokeWidth=1;shape=mxgraph.rtl.abstract.entity;container=1;collapsible=0;kind=inout;drawPins=0;left=1;right=1;bottom=0;top=0;fillColor=#e1d5e7;strokeColor=#9673a6;" parent="1" vertex="1">
                    <mxGeometry x="1140" y="500" width="120" height="40" as="geometry"/>
                </mxCell>
                <mxCell id="434" value="i_PM_0" style="externalPins=0;recursiveResize=0;shadow=0;dashed=0;align=center;html=1;strokeWidth=1;shape=mxgraph.rtl.abstract.entity;container=1;collapsible=0;kind=inout;drawPins=0;left=1;right=1;bottom=0;top=0;fillColor=#e1d5e7;strokeColor=#9673a6;" parent="1" vertex="1">
                    <mxGeometry x="1140" y="540" width="120" height="40" as="geometry"/>
                </mxCell>
                <mxCell id="435" value="i_BM_0" style="externalPins=0;recursiveResize=0;shadow=0;dashed=0;align=center;html=1;strokeWidth=1;shape=mxgraph.rtl.abstract.entity;container=1;collapsible=0;kind=inout;drawPins=0;left=1;right=1;bottom=0;top=0;fillColor=#e1d5e7;strokeColor=#9673a6;" parent="1" vertex="1">
                    <mxGeometry x="1140" y="580" width="120" height="40" as="geometry"/>
                </mxCell>
                <mxCell id="436" value="i_PM_1" style="externalPins=0;recursiveResize=0;shadow=0;dashed=0;align=center;html=1;strokeWidth=1;shape=mxgraph.rtl.abstract.entity;container=1;collapsible=0;kind=inout;drawPins=0;left=1;right=1;bottom=0;top=0;fillColor=#e1d5e7;strokeColor=#9673a6;" parent="1" vertex="1">
                    <mxGeometry x="1140" y="620" width="120" height="40" as="geometry"/>
                </mxCell>
                <mxCell id="437" style="edgeStyle=none;html=1;exitX=1;exitY=0.5;exitDx=0;exitDy=0;entryX=0;entryY=0;entryDx=0;entryDy=20;entryPerimeter=0;" parent="1" source="442" edge="1">
                    <mxGeometry relative="1" as="geometry">
                        <mxPoint x="1566" y="780" as="targetPoint"/>
                    </mxGeometry>
                </mxCell>
                <mxCell id="438" style="edgeStyle=none;html=1;exitX=0;exitY=0;exitDx=120;exitDy=20;exitPerimeter=0;entryX=0.003;entryY=0.201;entryDx=0;entryDy=0;entryPerimeter=0;" parent="1" source="444" target="442" edge="1">
                    <mxGeometry relative="1" as="geometry">
                        <mxPoint x="1260" y="720" as="sourcePoint"/>
                    </mxGeometry>
                </mxCell>
                <mxCell id="439" style="edgeStyle=none;html=1;exitX=0;exitY=0;exitDx=120;exitDy=20;exitPerimeter=0;" parent="1" source="445" edge="1">
                    <mxGeometry relative="1" as="geometry">
                        <mxPoint x="1260" y="760" as="sourcePoint"/>
                        <mxPoint x="1294" y="760" as="targetPoint"/>
                    </mxGeometry>
                </mxCell>
                <mxCell id="440" style="edgeStyle=none;html=1;exitX=0;exitY=0;exitDx=120;exitDy=20;exitPerimeter=0;" parent="1" source="446" edge="1">
                    <mxGeometry relative="1" as="geometry">
                        <mxPoint x="1260" y="800" as="sourcePoint"/>
                        <mxPoint x="1293" y="800" as="targetPoint"/>
                    </mxGeometry>
                </mxCell>
                <mxCell id="441" style="edgeStyle=none;html=1;exitX=0;exitY=0;exitDx=120;exitDy=20;exitPerimeter=0;entryX=-0.002;entryY=0.8;entryDx=0;entryDy=0;entryPerimeter=0;" parent="1" source="447" target="442" edge="1">
                    <mxGeometry relative="1" as="geometry">
                        <mxPoint x="1286" y="840.1290322580644" as="targetPoint"/>
                        <mxPoint x="1260" y="840" as="sourcePoint"/>
                    </mxGeometry>
                </mxCell>
                <mxCell id="442" value="&lt;font style=&quot;font-size: 20px;&quot;&gt;ACSU3&lt;/font&gt;" style="rounded=1;whiteSpace=wrap;html=1;fillColor=#ffe6cc;strokeColor=#d79b00;arcSize=0;" parent="1" vertex="1">
                    <mxGeometry x="1294" y="680" width="235" height="200" as="geometry"/>
                </mxCell>
                <mxCell id="443" value="o_PM_3" style="externalPins=0;recursiveResize=0;shadow=0;dashed=0;align=center;html=1;strokeWidth=1;shape=mxgraph.rtl.abstract.entity;container=1;collapsible=0;kind=output;drawPins=0;left=1;right=0;bottom=0;top=0;fillColor=#dae8fc;strokeColor=#6c8ebf;" parent="1" vertex="1">
                    <mxGeometry x="1566" y="759.9958620689656" width="120" height="40" as="geometry"/>
                </mxCell>
                <mxCell id="444" value="i_BM_1" style="externalPins=0;recursiveResize=0;shadow=0;dashed=0;align=center;html=1;strokeWidth=1;shape=mxgraph.rtl.abstract.entity;container=1;collapsible=0;kind=inout;drawPins=0;left=1;right=1;bottom=0;top=0;fillColor=#e1d5e7;strokeColor=#9673a6;" parent="1" vertex="1">
                    <mxGeometry x="1140" y="700" width="120" height="40" as="geometry"/>
                </mxCell>
                <mxCell id="445" value="i_PM_2" style="externalPins=0;recursiveResize=0;shadow=0;dashed=0;align=center;html=1;strokeWidth=1;shape=mxgraph.rtl.abstract.entity;container=1;collapsible=0;kind=inout;drawPins=0;left=1;right=1;bottom=0;top=0;fillColor=#e1d5e7;strokeColor=#9673a6;" parent="1" vertex="1">
                    <mxGeometry x="1140" y="740" width="120" height="40" as="geometry"/>
                </mxCell>
                <mxCell id="446" value="i_BM_2" style="externalPins=0;recursiveResize=0;shadow=0;dashed=0;align=center;html=1;strokeWidth=1;shape=mxgraph.rtl.abstract.entity;container=1;collapsible=0;kind=inout;drawPins=0;left=1;right=1;bottom=0;top=0;fillColor=#e1d5e7;strokeColor=#9673a6;" parent="1" vertex="1">
                    <mxGeometry x="1140" y="780" width="120" height="40" as="geometry"/>
                </mxCell>
                <mxCell id="447" value="i_PM_3" style="externalPins=0;recursiveResize=0;shadow=0;dashed=0;align=center;html=1;strokeWidth=1;shape=mxgraph.rtl.abstract.entity;container=1;collapsible=0;kind=inout;drawPins=0;left=1;right=1;bottom=0;top=0;fillColor=#e1d5e7;strokeColor=#9673a6;" parent="1" vertex="1">
                    <mxGeometry x="1140" y="820" width="120" height="40" as="geometry"/>
                </mxCell>
                <mxCell id="448" value="i_BM_0" style="externalPins=0;recursiveResize=0;shadow=0;dashed=0;align=center;html=1;strokeWidth=1;shape=mxgraph.rtl.abstract.entity;container=1;collapsible=0;kind=input;drawPins=0;left=0;right=1;bottom=0;top=0;fillColor=#d5e8d4;strokeColor=#82b366;" parent="1" vertex="1">
                    <mxGeometry x="880" y="120" width="120" height="40" as="geometry"/>
                </mxCell>
                <mxCell id="449" value="i_BM_1" style="externalPins=0;recursiveResize=0;shadow=0;dashed=0;align=center;html=1;strokeWidth=1;shape=mxgraph.rtl.abstract.entity;container=1;collapsible=0;kind=input;drawPins=0;left=0;right=1;bottom=0;top=0;fillColor=#d5e8d4;strokeColor=#82b366;" parent="1" vertex="1">
                    <mxGeometry x="880" y="160" width="120" height="40" as="geometry"/>
                </mxCell>
                <mxCell id="450" value="i_BM_2" style="externalPins=0;recursiveResize=0;shadow=0;dashed=0;align=center;html=1;strokeWidth=1;shape=mxgraph.rtl.abstract.entity;container=1;collapsible=0;kind=input;drawPins=0;left=0;right=1;bottom=0;top=0;fillColor=#d5e8d4;strokeColor=#82b366;" parent="1" vertex="1">
                    <mxGeometry x="880" y="200" width="120" height="40" as="geometry"/>
                </mxCell>
                <mxCell id="451" value="i_BM_3" style="externalPins=0;recursiveResize=0;shadow=0;dashed=0;align=center;html=1;strokeWidth=1;shape=mxgraph.rtl.abstract.entity;container=1;collapsible=0;kind=input;drawPins=0;left=0;right=1;bottom=0;top=0;fillColor=#d5e8d4;strokeColor=#82b366;" parent="1" vertex="1">
                    <mxGeometry x="880" y="240" width="120" height="40" as="geometry"/>
                </mxCell>
                <mxCell id="452" value="i_PM_0" style="externalPins=0;recursiveResize=0;shadow=0;dashed=0;align=center;html=1;strokeWidth=1;shape=mxgraph.rtl.abstract.entity;container=1;collapsible=0;kind=input;drawPins=0;left=0;right=1;bottom=0;top=0;fillColor=#d5e8d4;strokeColor=#82b366;" parent="1" vertex="1">
                    <mxGeometry x="880" y="320" width="120" height="40" as="geometry"/>
                </mxCell>
                <mxCell id="453" value="i_PM_1" style="externalPins=0;recursiveResize=0;shadow=0;dashed=0;align=center;html=1;strokeWidth=1;shape=mxgraph.rtl.abstract.entity;container=1;collapsible=0;kind=input;drawPins=0;left=0;right=1;bottom=0;top=0;fillColor=#d5e8d4;strokeColor=#82b366;" parent="1" vertex="1">
                    <mxGeometry x="880" y="360" width="120" height="40" as="geometry"/>
                </mxCell>
                <mxCell id="454" value="i_PM_2" style="externalPins=0;recursiveResize=0;shadow=0;dashed=0;align=center;html=1;strokeWidth=1;shape=mxgraph.rtl.abstract.entity;container=1;collapsible=0;kind=input;drawPins=0;left=0;right=1;bottom=0;top=0;fillColor=#d5e8d4;strokeColor=#82b366;" parent="1" vertex="1">
                    <mxGeometry x="880" y="400" width="120" height="40" as="geometry"/>
                </mxCell>
                <mxCell id="455" value="i_PM_3" style="externalPins=0;recursiveResize=0;shadow=0;dashed=0;align=center;html=1;strokeWidth=1;shape=mxgraph.rtl.abstract.entity;container=1;collapsible=0;kind=input;drawPins=0;left=0;right=1;bottom=0;top=0;fillColor=#d5e8d4;strokeColor=#82b366;" parent="1" vertex="1">
                    <mxGeometry x="880" y="440" width="120" height="40" as="geometry"/>
                </mxCell>
                <mxCell id="458" style="edgeStyle=none;html=1;exitX=0;exitY=0;exitDx=120;exitDy=20;exitPerimeter=0;entryX=0;entryY=0;entryDx=0;entryDy=20;entryPerimeter=0;fillColor=#dae8fc;strokeColor=#6c8ebf;" parent="1" source="448" target="367" edge="1">
                    <mxGeometry relative="1" as="geometry">
                        <Array as="points">
                            <mxPoint x="1040" y="140"/>
                            <mxPoint x="1040" y="120"/>
                        </Array>
                    </mxGeometry>
                </mxCell>
                <mxCell id="459" style="edgeStyle=none;html=1;exitX=0;exitY=0;exitDx=120;exitDy=20;exitPerimeter=0;entryX=0;entryY=0;entryDx=0;entryDy=20;entryPerimeter=0;fillColor=#d80073;strokeColor=#A50040;" parent="1" source="452" target="411" edge="1">
                    <mxGeometry relative="1" as="geometry">
                        <Array as="points">
                            <mxPoint x="1080" y="340"/>
                            <mxPoint x="1080" y="160"/>
                        </Array>
                    </mxGeometry>
                </mxCell>
                <mxCell id="460" style="edgeStyle=none;html=1;exitX=0;exitY=0;exitDx=120;exitDy=20;exitPerimeter=0;entryX=0;entryY=0;entryDx=0;entryDy=20;entryPerimeter=0;fillColor=#e1d5e7;strokeColor=#9673a6;" parent="1" source="451" target="412" edge="1">
                    <mxGeometry relative="1" as="geometry">
                        <Array as="points">
                            <mxPoint x="1070" y="260"/>
                            <mxPoint x="1070" y="200"/>
                        </Array>
                    </mxGeometry>
                </mxCell>
                <mxCell id="461" style="edgeStyle=none;html=1;exitX=0;exitY=0;exitDx=120;exitDy=20;exitPerimeter=0;entryX=0;entryY=0;entryDx=0;entryDy=20;entryPerimeter=0;fillColor=#0050ef;strokeColor=#001DBC;" parent="1" source="453" target="413" edge="1">
                    <mxGeometry relative="1" as="geometry">
                        <Array as="points">
                            <mxPoint x="1090" y="380"/>
                            <mxPoint x="1090" y="240"/>
                        </Array>
                    </mxGeometry>
                </mxCell>
                <mxCell id="462" style="edgeStyle=none;html=1;exitX=0;exitY=0;exitDx=120;exitDy=20;exitPerimeter=0;entryX=0;entryY=0;entryDx=0;entryDy=20;entryPerimeter=0;fillColor=#f8cecc;strokeColor=#b85450;" parent="1" source="450" target="422" edge="1">
                    <mxGeometry relative="1" as="geometry">
                        <Array as="points">
                            <mxPoint x="1060" y="220"/>
                            <mxPoint x="1060" y="320"/>
                        </Array>
                    </mxGeometry>
                </mxCell>
                <mxCell id="463" style="edgeStyle=none;html=1;exitX=0;exitY=0;exitDx=120;exitDy=20;exitPerimeter=0;entryX=0;entryY=0;entryDx=0;entryDy=20;entryPerimeter=0;fillColor=#a20025;strokeColor=#6F0000;" parent="1" source="454" target="423" edge="1">
                    <mxGeometry relative="1" as="geometry">
                        <Array as="points">
                            <mxPoint x="1100" y="420"/>
                            <mxPoint x="1100" y="360"/>
                        </Array>
                    </mxGeometry>
                </mxCell>
                <mxCell id="464" style="edgeStyle=none;html=1;exitX=0;exitY=0;exitDx=120;exitDy=20;exitPerimeter=0;entryX=0;entryY=0;entryDx=0;entryDy=20;entryPerimeter=0;fillColor=#fff2cc;strokeColor=#d6b656;" parent="1" source="449" target="424" edge="1">
                    <mxGeometry relative="1" as="geometry">
                        <Array as="points">
                            <mxPoint x="1050" y="180"/>
                            <mxPoint x="1050" y="400"/>
                        </Array>
                    </mxGeometry>
                </mxCell>
                <mxCell id="465" style="edgeStyle=none;html=1;exitX=0;exitY=0;exitDx=120;exitDy=20;exitPerimeter=0;entryX=0;entryY=0;entryDx=0;entryDy=20;entryPerimeter=0;fillColor=#6d8764;strokeColor=#3A5431;" parent="1" source="455" target="425" edge="1">
                    <mxGeometry relative="1" as="geometry">
                        <Array as="points">
                            <mxPoint x="1110" y="460"/>
                            <mxPoint x="1110" y="440"/>
                        </Array>
                    </mxGeometry>
                </mxCell>
                <mxCell id="466" style="edgeStyle=none;html=1;exitX=0;exitY=0;exitDx=120;exitDy=20;exitPerimeter=0;entryX=0;entryY=0;entryDx=0;entryDy=20;entryPerimeter=0;fillColor=#e1d5e7;strokeColor=#9673a6;" parent="1" source="451" target="433" edge="1">
                    <mxGeometry relative="1" as="geometry">
                        <Array as="points">
                            <mxPoint x="1070" y="260"/>
                            <mxPoint x="1070" y="520"/>
                        </Array>
                    </mxGeometry>
                </mxCell>
                <mxCell id="467" style="edgeStyle=none;html=1;exitX=0;exitY=0;exitDx=120;exitDy=20;exitPerimeter=0;entryX=0;entryY=0;entryDx=0;entryDy=20;entryPerimeter=0;fillColor=#d80073;strokeColor=#A50040;" parent="1" source="452" target="434" edge="1">
                    <mxGeometry relative="1" as="geometry">
                        <Array as="points">
                            <mxPoint x="1080" y="340"/>
                            <mxPoint x="1080" y="560"/>
                        </Array>
                    </mxGeometry>
                </mxCell>
                <mxCell id="468" style="edgeStyle=none;html=1;exitX=0;exitY=0;exitDx=120;exitDy=20;exitPerimeter=0;entryX=0;entryY=0;entryDx=0;entryDy=20;entryPerimeter=0;fillColor=#dae8fc;strokeColor=#6c8ebf;" parent="1" source="448" target="435" edge="1">
                    <mxGeometry relative="1" as="geometry">
                        <Array as="points">
                            <mxPoint x="1040" y="140"/>
                            <mxPoint x="1040" y="600"/>
                        </Array>
                    </mxGeometry>
                </mxCell>
                <mxCell id="469" style="edgeStyle=none;html=1;exitX=0;exitY=0;exitDx=120;exitDy=20;exitPerimeter=0;entryX=0;entryY=0;entryDx=0;entryDy=20;entryPerimeter=0;fillColor=#0050ef;strokeColor=#001DBC;" parent="1" source="453" target="436" edge="1">
                    <mxGeometry relative="1" as="geometry">
                        <Array as="points">
                            <mxPoint x="1090" y="380"/>
                            <mxPoint x="1090" y="640"/>
                        </Array>
                    </mxGeometry>
                </mxCell>
                <mxCell id="470" style="edgeStyle=none;html=1;exitX=0;exitY=0;exitDx=120;exitDy=20;exitPerimeter=0;entryX=0;entryY=0;entryDx=0;entryDy=20;entryPerimeter=0;fillColor=#fff2cc;strokeColor=#d6b656;" parent="1" source="449" target="444" edge="1">
                    <mxGeometry relative="1" as="geometry">
                        <Array as="points">
                            <mxPoint x="1050" y="180"/>
                            <mxPoint x="1050" y="720"/>
                        </Array>
                    </mxGeometry>
                </mxCell>
                <mxCell id="471" style="edgeStyle=none;html=1;exitX=0;exitY=0;exitDx=120;exitDy=20;exitPerimeter=0;entryX=0;entryY=0;entryDx=0;entryDy=20;entryPerimeter=0;fillColor=#a20025;strokeColor=#6F0000;" parent="1" source="454" target="445" edge="1">
                    <mxGeometry relative="1" as="geometry">
                        <Array as="points">
                            <mxPoint x="1100" y="420"/>
                            <mxPoint x="1100" y="760"/>
                        </Array>
                    </mxGeometry>
                </mxCell>
                <mxCell id="472" style="edgeStyle=none;html=1;exitX=0;exitY=0;exitDx=120;exitDy=20;exitPerimeter=0;entryX=0;entryY=0;entryDx=0;entryDy=20;entryPerimeter=0;fillColor=#f8cecc;strokeColor=#b85450;" parent="1" source="450" target="446" edge="1">
                    <mxGeometry relative="1" as="geometry">
                        <Array as="points">
                            <mxPoint x="1060" y="220"/>
                            <mxPoint x="1060" y="800"/>
                        </Array>
                    </mxGeometry>
                </mxCell>
                <mxCell id="473" style="edgeStyle=none;html=1;exitX=0;exitY=0;exitDx=120;exitDy=20;exitPerimeter=0;entryX=0;entryY=0;entryDx=0;entryDy=20;entryPerimeter=0;fillColor=#6d8764;strokeColor=#3A5431;" parent="1" source="455" target="447" edge="1">
                    <mxGeometry relative="1" as="geometry">
                        <Array as="points">
                            <mxPoint x="1110" y="460"/>
                            <mxPoint x="1110" y="840"/>
                        </Array>
                    </mxGeometry>
                </mxCell>
                <mxCell id="477" value="&lt;span style=&quot;color: rgb(0, 0, 0);&quot;&gt;Block Add Compare Select Unit&lt;/span&gt;" style="rounded=1;whiteSpace=wrap;html=1;fillColor=#e1d5e7;strokeColor=#9673a6;" parent="1" vertex="1">
                    <mxGeometry x="1140" y="960" width="276" height="40" as="geometry"/>
                </mxCell>
                <mxCell id="478" value="&lt;font style=&quot;font-size: 20px;&quot;&gt;PMU&lt;/font&gt;" style="rounded=1;whiteSpace=wrap;html=1;fillColor=#ffe6cc;strokeColor=#d79b00;arcSize=0;" vertex="1" parent="1">
                    <mxGeometry x="1145" y="1570" width="202" height="200" as="geometry"/>
                </mxCell>
                <mxCell id="479" value="i_PM_0" style="externalPins=0;recursiveResize=0;shadow=0;dashed=0;align=center;html=1;strokeWidth=1;shape=mxgraph.rtl.abstract.entity;container=1;collapsible=0;kind=input;drawPins=0;left=0;right=1;bottom=0;top=0;fillColor=#d5e8d4;strokeColor=#82b366;" vertex="1" parent="1">
                    <mxGeometry x="955" y="1590" width="120" height="40" as="geometry"/>
                </mxCell>
                <mxCell id="482" value="i_PM_1" style="externalPins=0;recursiveResize=0;shadow=0;dashed=0;align=center;html=1;strokeWidth=1;shape=mxgraph.rtl.abstract.entity;container=1;collapsible=0;kind=input;drawPins=0;left=0;right=1;bottom=0;top=0;fillColor=#d5e8d4;strokeColor=#82b366;" vertex="1" parent="1">
                    <mxGeometry x="955" y="1630" width="120" height="40" as="geometry"/>
                </mxCell>
                <mxCell id="483" value="i_PM_2" style="externalPins=0;recursiveResize=0;shadow=0;dashed=0;align=center;html=1;strokeWidth=1;shape=mxgraph.rtl.abstract.entity;container=1;collapsible=0;kind=input;drawPins=0;left=0;right=1;bottom=0;top=0;fillColor=#d5e8d4;strokeColor=#82b366;" vertex="1" parent="1">
                    <mxGeometry x="955" y="1670" width="120" height="40" as="geometry"/>
                </mxCell>
                <mxCell id="484" value="i_PM_3" style="externalPins=0;recursiveResize=0;shadow=0;dashed=0;align=center;html=1;strokeWidth=1;shape=mxgraph.rtl.abstract.entity;container=1;collapsible=0;kind=input;drawPins=0;left=0;right=1;bottom=0;top=0;fillColor=#d5e8d4;strokeColor=#82b366;" vertex="1" parent="1">
                    <mxGeometry x="955" y="1710" width="120" height="40" as="geometry"/>
                </mxCell>
                <mxCell id="486" value="o_PM_0" style="externalPins=0;recursiveResize=0;shadow=0;dashed=0;align=center;html=1;strokeWidth=1;shape=mxgraph.rtl.abstract.entity;container=1;collapsible=0;kind=output;drawPins=0;left=1;right=0;bottom=0;top=0;fillColor=#fff2cc;strokeColor=#d6b656;" vertex="1" parent="1">
                    <mxGeometry x="1405" y="1590" width="120" height="40" as="geometry"/>
                </mxCell>
                <mxCell id="487" value="o_PM_1" style="externalPins=0;recursiveResize=0;shadow=0;dashed=0;align=center;html=1;strokeWidth=1;shape=mxgraph.rtl.abstract.entity;container=1;collapsible=0;kind=output;drawPins=0;left=1;right=0;bottom=0;top=0;fillColor=#fff2cc;strokeColor=#d6b656;" vertex="1" parent="1">
                    <mxGeometry x="1405" y="1630" width="120" height="40" as="geometry"/>
                </mxCell>
                <mxCell id="488" value="o_PM_2" style="externalPins=0;recursiveResize=0;shadow=0;dashed=0;align=center;html=1;strokeWidth=1;shape=mxgraph.rtl.abstract.entity;container=1;collapsible=0;kind=output;drawPins=0;left=1;right=0;bottom=0;top=0;fillColor=#fff2cc;strokeColor=#d6b656;" vertex="1" parent="1">
                    <mxGeometry x="1405" y="1670" width="120" height="40" as="geometry"/>
                </mxCell>
                <mxCell id="489" value="o_PM_3" style="externalPins=0;recursiveResize=0;shadow=0;dashed=0;align=center;html=1;strokeWidth=1;shape=mxgraph.rtl.abstract.entity;container=1;collapsible=0;kind=output;drawPins=0;left=1;right=0;bottom=0;top=0;fillColor=#fff2cc;strokeColor=#d6b656;" vertex="1" parent="1">
                    <mxGeometry x="1405" y="1710" width="120" height="40" as="geometry"/>
                </mxCell>
                <mxCell id="490" style="edgeStyle=none;html=1;exitX=0;exitY=0;exitDx=120;exitDy=20;exitPerimeter=0;entryX=0;entryY=0.2;entryDx=0;entryDy=0;entryPerimeter=0;" edge="1" parent="1" source="479" target="478">
                    <mxGeometry relative="1" as="geometry"/>
                </mxCell>
                <mxCell id="491" style="edgeStyle=none;html=1;exitX=0;exitY=0;exitDx=120;exitDy=20;exitPerimeter=0;entryX=-0.009;entryY=0.396;entryDx=0;entryDy=0;entryPerimeter=0;" edge="1" parent="1" source="482" target="478">
                    <mxGeometry relative="1" as="geometry"/>
                </mxCell>
                <mxCell id="492" style="edgeStyle=none;html=1;exitX=0;exitY=0;exitDx=120;exitDy=20;exitPerimeter=0;entryX=-0.009;entryY=0.596;entryDx=0;entryDy=0;entryPerimeter=0;" edge="1" parent="1" source="483" target="478">
                    <mxGeometry relative="1" as="geometry"/>
                </mxCell>
                <mxCell id="493" style="edgeStyle=none;html=1;exitX=0;exitY=0;exitDx=120;exitDy=20;exitPerimeter=0;entryX=-0.009;entryY=0.8;entryDx=0;entryDy=0;entryPerimeter=0;" edge="1" parent="1" source="484" target="478">
                    <mxGeometry relative="1" as="geometry"/>
                </mxCell>
                <mxCell id="495" style="edgeStyle=none;html=1;entryX=0;entryY=0;entryDx=0;entryDy=20;entryPerimeter=0;exitX=1.009;exitY=0.201;exitDx=0;exitDy=0;exitPerimeter=0;" edge="1" parent="1" source="478" target="486">
                    <mxGeometry relative="1" as="geometry">
                        <mxPoint x="1345" y="1610" as="sourcePoint"/>
                    </mxGeometry>
                </mxCell>
                <mxCell id="496" style="edgeStyle=none;html=1;exitX=1.011;exitY=0.403;exitDx=0;exitDy=0;exitPerimeter=0;entryX=0;entryY=0;entryDx=0;entryDy=20;entryPerimeter=0;" edge="1" parent="1" source="478" target="487">
                    <mxGeometry relative="1" as="geometry"/>
                </mxCell>
                <mxCell id="497" style="edgeStyle=none;html=1;exitX=1.006;exitY=0.599;exitDx=0;exitDy=0;exitPerimeter=0;entryX=0;entryY=0;entryDx=0;entryDy=20;entryPerimeter=0;" edge="1" parent="1" source="478" target="488">
                    <mxGeometry relative="1" as="geometry"/>
                </mxCell>
                <mxCell id="498" style="edgeStyle=none;html=1;entryX=0;entryY=0;entryDx=0;entryDy=20;entryPerimeter=0;" edge="1" parent="1" target="489">
                    <mxGeometry relative="1" as="geometry">
                        <mxPoint x="1348" y="1730" as="sourcePoint"/>
                    </mxGeometry>
                </mxCell>
                <mxCell id="499" value="D-FF" style="externalPins=0;recursiveResize=0;shadow=0;dashed=0;align=center;html=1;strokeWidth=1;shape=mxgraph.rtl.abstract.entity;left=,:clk;right=,:np;top=0;bottom=0;drawPins=0;snapToPoint=1;resizable=1;editable=1;movable=1;rotatable=1;deletable=1;locked=0;connectable=1;fillColor=#f8cecc;strokeColor=#b85450;" vertex="1" parent="1">
                    <mxGeometry x="1275" y="1260" width="80" height="120" as="geometry"/>
                </mxCell>
                <mxCell id="500" value="i_clk" style="externalPins=0;recursiveResize=0;shadow=0;dashed=0;align=center;html=1;strokeWidth=1;shape=mxgraph.rtl.abstract.entity;container=1;collapsible=0;kind=input;drawPins=0;left=0;right=1;bottom=0;top=0;fillColor=#d5e8d4;strokeColor=#82b366;" vertex="1" parent="1">
                    <mxGeometry x="1055" y="1320" width="120" height="40" as="geometry"/>
                </mxCell>
                <mxCell id="501" style="edgeStyle=none;html=1;exitX=0;exitY=0;exitDx=120;exitDy=20;exitPerimeter=0;entryX=0;entryY=0;entryDx=0;entryDy=80;entryPerimeter=0;" edge="1" parent="1" source="500" target="499">
                    <mxGeometry relative="1" as="geometry"/>
                </mxCell>
                <mxCell id="502" value="i_PM_" style="externalPins=0;recursiveResize=0;shadow=0;dashed=0;align=center;html=1;strokeWidth=1;shape=mxgraph.rtl.abstract.entity;container=1;collapsible=0;kind=input;drawPins=0;left=0;right=1;bottom=0;top=0;fillColor=#d5e8d4;strokeColor=#82b366;" vertex="1" parent="1">
                    <mxGeometry x="1055" y="1270" width="120" height="40" as="geometry"/>
                </mxCell>
                <mxCell id="503" style="edgeStyle=none;html=1;exitX=0;exitY=0;exitDx=120;exitDy=20;exitPerimeter=0;entryX=0.004;entryY=0.256;entryDx=0;entryDy=0;entryPerimeter=0;" edge="1" parent="1" source="502" target="499">
                    <mxGeometry relative="1" as="geometry"/>
                </mxCell>
                <mxCell id="504" value="o_PM_" style="externalPins=0;recursiveResize=0;shadow=0;dashed=0;align=center;html=1;strokeWidth=1;shape=mxgraph.rtl.abstract.entity;container=1;collapsible=0;kind=output;drawPins=0;left=1;right=0;bottom=0;top=0;fillColor=#fff2cc;strokeColor=#d6b656;" vertex="1" parent="1">
                    <mxGeometry x="1451" y="1270" width="120" height="40" as="geometry"/>
                </mxCell>
                <mxCell id="505" style="edgeStyle=none;html=1;exitX=1;exitY=0.25;exitDx=0;exitDy=0;exitPerimeter=0;entryX=0;entryY=0;entryDx=0;entryDy=20;entryPerimeter=0;" edge="1" parent="1" source="499" target="504">
                    <mxGeometry relative="1" as="geometry"/>
                </mxCell>
                <mxCell id="506" value="D-FF" style="externalPins=0;recursiveResize=0;shadow=0;dashed=0;align=center;html=1;strokeWidth=1;shape=mxgraph.rtl.abstract.entity;left=,:clk;right=,:np;top=0;bottom=0;drawPins=0;snapToPoint=1;resizable=1;editable=1;movable=1;rotatable=1;deletable=1;locked=0;connectable=1;fillColor=#f8cecc;strokeColor=#b85450;" vertex="1" parent="1">
                    <mxGeometry x="1285" y="1270" width="80" height="120" as="geometry"/>
                </mxCell>
                <mxCell id="507" value="i_clk" style="externalPins=0;recursiveResize=0;shadow=0;dashed=0;align=center;html=1;strokeWidth=1;shape=mxgraph.rtl.abstract.entity;container=1;collapsible=0;kind=input;drawPins=0;left=0;right=1;bottom=0;top=0;fillColor=#d5e8d4;strokeColor=#82b366;" vertex="1" parent="1">
                    <mxGeometry x="1065" y="1330" width="120" height="40" as="geometry"/>
                </mxCell>
                <mxCell id="508" style="edgeStyle=none;html=1;exitX=0;exitY=0;exitDx=120;exitDy=20;exitPerimeter=0;entryX=0;entryY=0;entryDx=0;entryDy=80;entryPerimeter=0;" edge="1" source="507" target="506" parent="1">
                    <mxGeometry relative="1" as="geometry"/>
                </mxCell>
                <mxCell id="509" value="i_PM_" style="externalPins=0;recursiveResize=0;shadow=0;dashed=0;align=center;html=1;strokeWidth=1;shape=mxgraph.rtl.abstract.entity;container=1;collapsible=0;kind=input;drawPins=0;left=0;right=1;bottom=0;top=0;fillColor=#d5e8d4;strokeColor=#82b366;" vertex="1" parent="1">
                    <mxGeometry x="1065" y="1280" width="120" height="40" as="geometry"/>
                </mxCell>
                <mxCell id="510" style="edgeStyle=none;html=1;exitX=0;exitY=0;exitDx=120;exitDy=20;exitPerimeter=0;entryX=0.004;entryY=0.256;entryDx=0;entryDy=0;entryPerimeter=0;" edge="1" source="509" target="506" parent="1">
                    <mxGeometry relative="1" as="geometry"/>
                </mxCell>
                <mxCell id="511" value="o_PM_" style="externalPins=0;recursiveResize=0;shadow=0;dashed=0;align=center;html=1;strokeWidth=1;shape=mxgraph.rtl.abstract.entity;container=1;collapsible=0;kind=output;drawPins=0;left=1;right=0;bottom=0;top=0;fillColor=#fff2cc;strokeColor=#d6b656;" vertex="1" parent="1">
                    <mxGeometry x="1461" y="1280" width="120" height="40" as="geometry"/>
                </mxCell>
                <mxCell id="512" style="edgeStyle=none;html=1;exitX=1;exitY=0.25;exitDx=0;exitDy=0;exitPerimeter=0;entryX=0;entryY=0;entryDx=0;entryDy=20;entryPerimeter=0;" edge="1" source="506" target="511" parent="1">
                    <mxGeometry relative="1" as="geometry"/>
                </mxCell>
                <mxCell id="513" value="D-FF" style="externalPins=0;recursiveResize=0;shadow=0;dashed=0;align=center;html=1;strokeWidth=1;shape=mxgraph.rtl.abstract.entity;left=,:clk;right=,:np;top=0;bottom=0;drawPins=0;snapToPoint=1;resizable=1;editable=1;movable=1;rotatable=1;deletable=1;locked=0;connectable=1;fillColor=#f8cecc;strokeColor=#b85450;" vertex="1" parent="1">
                    <mxGeometry x="1295" y="1280" width="80" height="120" as="geometry"/>
                </mxCell>
                <mxCell id="514" value="i_clk" style="externalPins=0;recursiveResize=0;shadow=0;dashed=0;align=center;html=1;strokeWidth=1;shape=mxgraph.rtl.abstract.entity;container=1;collapsible=0;kind=input;drawPins=0;left=0;right=1;bottom=0;top=0;fillColor=#d5e8d4;strokeColor=#82b366;" vertex="1" parent="1">
                    <mxGeometry x="1075" y="1340" width="120" height="40" as="geometry"/>
                </mxCell>
                <mxCell id="515" style="edgeStyle=none;html=1;exitX=0;exitY=0;exitDx=120;exitDy=20;exitPerimeter=0;entryX=0;entryY=0;entryDx=0;entryDy=80;entryPerimeter=0;" edge="1" source="514" target="513" parent="1">
                    <mxGeometry relative="1" as="geometry"/>
                </mxCell>
                <mxCell id="516" value="i_PM_" style="externalPins=0;recursiveResize=0;shadow=0;dashed=0;align=center;html=1;strokeWidth=1;shape=mxgraph.rtl.abstract.entity;container=1;collapsible=0;kind=input;drawPins=0;left=0;right=1;bottom=0;top=0;fillColor=#d5e8d4;strokeColor=#82b366;" vertex="1" parent="1">
                    <mxGeometry x="1075" y="1290" width="120" height="40" as="geometry"/>
                </mxCell>
                <mxCell id="517" style="edgeStyle=none;html=1;exitX=0;exitY=0;exitDx=120;exitDy=20;exitPerimeter=0;entryX=0.004;entryY=0.256;entryDx=0;entryDy=0;entryPerimeter=0;" edge="1" source="516" target="513" parent="1">
                    <mxGeometry relative="1" as="geometry"/>
                </mxCell>
                <mxCell id="518" value="o_PM_" style="externalPins=0;recursiveResize=0;shadow=0;dashed=0;align=center;html=1;strokeWidth=1;shape=mxgraph.rtl.abstract.entity;container=1;collapsible=0;kind=output;drawPins=0;left=1;right=0;bottom=0;top=0;fillColor=#fff2cc;strokeColor=#d6b656;" vertex="1" parent="1">
                    <mxGeometry x="1471" y="1290" width="120" height="40" as="geometry"/>
                </mxCell>
                <mxCell id="519" style="edgeStyle=none;html=1;exitX=1;exitY=0.25;exitDx=0;exitDy=0;exitPerimeter=0;entryX=0;entryY=0;entryDx=0;entryDy=20;entryPerimeter=0;" edge="1" source="513" target="518" parent="1">
                    <mxGeometry relative="1" as="geometry"/>
                </mxCell>
                <mxCell id="520" value="D-FF" style="externalPins=0;recursiveResize=0;shadow=0;dashed=0;align=center;html=1;strokeWidth=1;shape=mxgraph.rtl.abstract.entity;left=,:clk;right=,:np;top=0;bottom=0;drawPins=0;snapToPoint=1;resizable=1;editable=1;movable=1;rotatable=1;deletable=1;locked=0;connectable=1;fillColor=#f8cecc;strokeColor=#b85450;" vertex="1" parent="1">
                    <mxGeometry x="1305" y="1290" width="80" height="120" as="geometry"/>
                </mxCell>
                <mxCell id="521" value="i_clk" style="externalPins=0;recursiveResize=0;shadow=0;dashed=0;align=center;html=1;strokeWidth=1;shape=mxgraph.rtl.abstract.entity;container=1;collapsible=0;kind=input;drawPins=0;left=0;right=1;bottom=0;top=0;fillColor=#d5e8d4;strokeColor=#82b366;" vertex="1" parent="1">
                    <mxGeometry x="1085" y="1350" width="120" height="40" as="geometry"/>
                </mxCell>
                <mxCell id="522" style="edgeStyle=none;html=1;exitX=0;exitY=0;exitDx=120;exitDy=20;exitPerimeter=0;entryX=0;entryY=0;entryDx=0;entryDy=80;entryPerimeter=0;" edge="1" source="521" target="520" parent="1">
                    <mxGeometry relative="1" as="geometry"/>
                </mxCell>
                <mxCell id="523" value="i_PM_" style="externalPins=0;recursiveResize=0;shadow=0;dashed=0;align=center;html=1;strokeWidth=1;shape=mxgraph.rtl.abstract.entity;container=1;collapsible=0;kind=input;drawPins=0;left=0;right=1;bottom=0;top=0;fillColor=#d5e8d4;strokeColor=#82b366;" vertex="1" parent="1">
                    <mxGeometry x="1085" y="1300" width="120" height="40" as="geometry"/>
                </mxCell>
                <mxCell id="524" style="edgeStyle=none;html=1;exitX=0;exitY=0;exitDx=120;exitDy=20;exitPerimeter=0;entryX=0.004;entryY=0.256;entryDx=0;entryDy=0;entryPerimeter=0;" edge="1" source="523" target="520" parent="1">
                    <mxGeometry relative="1" as="geometry"/>
                </mxCell>
                <mxCell id="525" value="o_PM_" style="externalPins=0;recursiveResize=0;shadow=0;dashed=0;align=center;html=1;strokeWidth=1;shape=mxgraph.rtl.abstract.entity;container=1;collapsible=0;kind=output;drawPins=0;left=1;right=0;bottom=0;top=0;fillColor=#fff2cc;strokeColor=#d6b656;" vertex="1" parent="1">
                    <mxGeometry x="1481" y="1300" width="120" height="40" as="geometry"/>
                </mxCell>
                <mxCell id="526" style="edgeStyle=none;html=1;exitX=1;exitY=0.25;exitDx=0;exitDy=0;exitPerimeter=0;entryX=0;entryY=0;entryDx=0;entryDy=20;entryPerimeter=0;" edge="1" source="520" target="525" parent="1">
                    <mxGeometry relative="1" as="geometry"/>
                </mxCell>
                <mxCell id="530" style="edgeStyle=none;html=1;exitX=0;exitY=1;exitDx=0;exitDy=0;entryX=0;entryY=1;entryDx=0;entryDy=0;dashed=1;" edge="1" parent="1" source="478" target="527">
                    <mxGeometry relative="1" as="geometry"/>
                </mxCell>
                <mxCell id="531" style="edgeStyle=none;html=1;exitX=1;exitY=1;exitDx=0;exitDy=0;entryX=1;entryY=1;entryDx=0;entryDy=0;dashed=1;" edge="1" parent="1" source="478" target="527">
                    <mxGeometry relative="1" as="geometry"/>
                </mxCell>
                <mxCell id="537" value="&lt;span style=&quot;color: rgb(0, 0, 0);&quot;&gt;Block Path Metric Unit&lt;/span&gt;" style="rounded=1;whiteSpace=wrap;html=1;fillColor=#e1d5e7;strokeColor=#9673a6;" vertex="1" parent="1">
                    <mxGeometry x="1108" y="1815" width="276" height="40" as="geometry"/>
                </mxCell>
            </root>
        </mxGraphModel>
    </diagram>
</mxfile>